<?xml version="1.0" encoding="UTF-8"?>
<svg version="1.1" viewBox="0 0 1824 1288" width="456" height="322" xmlns="http://www.w3.org/2000/svg">
<path transform="translate(1118,610)" d="m0 0 10 1 9 8 2 4v12l-3 12-8 16-12 19-9 15-12 21-2 2-6-1-1-1v-13l10-23 7-12 7-14 5-9 1-4-13 7-32 20-38 25-24 15-17 11-13 9-17 12-18 13-16 12-16 11-17 13-12 11-10 7-2 2 1 5 7 6 16 12 2 3-1 11 9 11 12 13 7 8 9 10 10 11 11 14 11 13 11 14 13 17 10 13 13 10 10 4h9l12-5 10-9 6-10 5-4 3 1 3 18 6 9 5 4 4 1h15l2-1-1-6-3-8v-11l4-12 10-16 9-8 8-4h7l6 3 7 8 4 8 1 4v23l-5 10v6l5 2 3 1h15l14-4 9-7 4-5 1-3v-92l-1-35-1-88v-23l-9 3-18 8-19 10-16 8-21 12-17 11-13 8-6-1-2-3 1-6 9-10 21-13 15-9 18-10 27-14 19-10 8-5 1-8v-61l-2-7 1-6 6-12 5-6 6-2 5 5 3 7 3 12 3 8v7l-5 9h-2l1 7v36l40-19 17-8 17-7 5 1 1 3v8l-5 5-12 6-29 13-16 8-17 9-1 1v33l1 115 1 25v67l3 10 8 8 13 9 19 9 5-1 8-9-2-4-12-12-6-10-1-4v-12l3-10 9-10 8-5 8-2h20l17 2 35 7 11 2 37 4 6 2-1 5-5 8-6 5-10 2-20 2-26 6-15 6-16 10-4 4h-2l8 16 3 2 36 1 4-3 1 3 1 4 8 5 18 8 11 7 10 9 6 8 5 3 9-3 15-10 12-11 10-15v-7l-4-3-18-6-6-4-5-6-3-12 1-10 4-11 4-6 8-7 4-2h13l10 5 7 7 6 12 4 16v16l-3 12-8 16-7 10-9 11-9 10h-2l-1 3-8 7-13 10-2 5-2 19-4 16-5 13-8 13-11 12-11 10-11 7-11 5-16 4h-24l-14-3-14-6-11-7-10-8-10-10-9-14-8-19-4-19v-23l2-15 11-33-14-10-11-9-12-13-5-2-10 9-8 7-14 8-12 5-7 1h-9l-12-2-18-6-10 4-12 5-6 2h-17l-9-4-11-9-4-4-5 2-10 8-8 4h-14l-10-4-14-8-11-9-5-2-8 7-9 9-12 9-17 10-17 12-14 11-2 3 1 6 4 6 18 10 9 6 6 7 1 6-4 8-3 2h-8l-11-3-7-1h-12l-15 3-10 4-14 9-13 12-17 17-7 8-11 13-9 11-12 13-9 10-10 10-16 12-16 9-16 4h-17l-9-3-10-9-8-14-3-10-1-15 1-14 4-15 5-12 10-21 12-14 3-2-1 6-5 11-7 23-4 21v10l4 11 6 10 8 5 4 1h9l12-5 11-8 10-8 8-7 14-14 8-7 25-25 8-7 11-10 11-9 13-10 16-10 16-8-2-12v-10l4-11 10-13 10-9 16-11 20-14 11-9 8-7 5-6-10-14-13-18-20-26-14-18-12-13-7-8-12-12-7-8-8-9-2-1v-2l-4-2-2-4-1-8v-12l4-15 6-12 8-11 17-17 9-7 13-10 16-12 38-25 14-9 23-15 24-15 17-11 19-13 16-12 19-12 14-7zm159 332-6 3-3 3 1 5 4 5 17 12 3 2 4-1 14-10 12-8 5-5v-2l-13-2-20-2zm-151 9-8 7-2 4v6l4 6 5 3 6-1 6-5v-8l-3-9-3-3zm322 6-3 3 1 6 6 3h6l1-4-3-5-7-3zm-157 40-2 3 7 1-2-4zm-20 23-6 10-7 19-2 9v10l3 14 5 13 7 12 8 11 11 11 15 10 14 6 12 3h17l14-3 12-5 11-7 11-10 6-5 10-14 1-2v-16l-4-6-26 4h-13l-13-4-9-6-7-7-6-12-1-4v-7l1-11-4-6-8-1-6 7-4-2-5-5-21-3-11-3zm81 11-2 2 1 7 9 10 16 8h11l5-3-2-5-8-7-14-8-12-4z" fill="#454439"/>
<path transform="translate(1118,610)" d="m0 0 10 1 9 8 2 4v12l-3 12-8 16-12 19-9 15-12 21-2 2-6-1-1-1v-13l10-23 7-12 7-14 5-9 1-4-13 7-32 20-38 25-24 15-17 11-13 9-17 12-18 13-16 12-16 11-17 13-12 11-10 7-2 2 1 5 7 6 16 12 2 3-1 11 9 11 12 13 7 8 9 10 10 11 11 14 11 13 11 14 13 17 10 13 13 10 10 4h9l12-5 10-9 6-10 5-4 3 1 3 18 6 9 5 4 4 1h15l2-1-1-6-3-8v-11l4-12 10-16 9-8 8-4h7l6 3 7 8 4 8 1 4v23l-5 10v6l5 2 3 1h15l14-4 9-7 4-5 1-3v-92l-1-35-1-88v-23l-9 3-18 8-19 10-16 8-21 12-17 11-13 8-6-1-2-3 1-6 9-10 21-13 15-9 18-10 27-14 19-10 8-5 1-8v-61l-2-7 1-6 6-12 5-6 6-2 5 5 3 7 3 12 3 8v7l-5 9h-2l1 7v36l40-19 17-8 17-7 5 1 1 3v8l-5 5-12 6-29 13-16 8-17 9-1 1v33l1 115 1 25v67l3 10 8 8 13 9 19 9 5-1 8-9-2-4-12-12-6-10-1-4v-12l3-10 9-10 8-5 8-2h20l17 2 35 7 11 2 37 4 6 2-1 5-5 8-6 5-10 2-20 2-26 6-15 6-16 10-4 4h-2l8 16 3 2 36 1 4-3 1 3 1 4 8 5 18 8 11 7 10 9 6 8 5 3 9-3 15-10 12-11 10-15v-7l-4-3-18-6-6-4-5-6-3-12 1-10 4-11 4-6 8-7 4-2h13l10 5 7 7 6 12 4 16v16l-3 12-8 16-7 10-9 11-9 10h-2l-1 3-8 7-13 10-2 5-2 19-4 16-5 13-8 13-11 12-11 10-11 7-11 5-16 4h-24l-14-3-14-6-11-7-10-8-10-10-9-14-8-19-4-19v-23l2-15 11-33-14-10-11-9-12-13-5-2-10 9-8 7-14 8-3-1 14-8 9-9 5-6 5-3 7 1 8 7v3h2l4 5 14 10 5 4 7 5 1 5 5 1h15l18 4 13 2 18-1 5 3 3 3 1 9v8l3 14 7 8 7 7 8 4 8 2h14l17-3 7-1 4 3 1 6 5-1 4-15 4-6 6-5h3v-2l16-14 5-6 5-5 5-7 1-4h3l2-6 5-9 3-5 3-9v-25l-5-14-3-5v-3h-2v-2l-4-2-5-3-5-2h-11l-6 3-4 5-1 2h-2l-3 25 3 9 6 5 11 5 9 3 5 6 1 7-6 11-16 16-11 7-10 7-6 1-9-3-8-9-5-5-13-9-11-6-21-9-13-2-21-2-8-4-3-4-3-6 1-9 4-4 10-7 19-10 17-4 6-2 32-3 7-3 4-4 1-4-2-2-30-4-19-3-25-4-16-3-7-1h-21l-9 2-9 7-3 4v6l8-3h27l22 2 9 4 1 4-4 6-11 7-5 4-9 7-8 1-10-4-11-8-6-4-4-1 2 9 5 6 8 7 3 4v7l-2 6-6 3-1 1h-9l-16-8-13-8-6-3-4-5-4-9-1-3-1-66-1-49v-127l3-6 6-4 13-6 16-8 20-9 14-6 6-5 1-3h-7l-10 5-7 3-16 7-10 5-13 6-7 2-9-1-1-1v-21l1-25 4-1 1-14-3-7-3-11v-3h-8l-5 5-3 6v7l1 5 1 24v41l-3 8-7 6-24 12-17 8-20 12-20 11-11 7-11 8-3 5 8-2 12-7 11-7 11-6 27-14 16-8 22-10 6-1 3 2 1 6 1 158v66l-1 13-4 6-8 7-10 5-13 3-11-1-9-4-3-4v-7l6-13v-16l-2-6-6-9-4-4h-10l-7 1v2l-5 3-6 8-8 17-1 10 3 10 2 3v5l-8 6-7 1-13-3-8-7-8-11-2-3h-5l-1 4-5 5-5 3-10 5-5 1h-7l-13-4-9-7-5-5-9-11-8-11-10-13-9-11-10-11-9-11-9-10v-2l-3-1-11-14-5-5v-2l-4-2-5-6v-2l-3-1-6-8-4-9v-7l-7-7-5-3-9-6-4-6 1-6 4-6 17-13 14-11 8-6 17-12 19-14 13-10 3-2h3v-2l24-16 20-13 17-11 9-6 11-7 10-7 23-14 23-15 11-6h5l3 5-2 8-6 11-2 1-1 5-5 9-4 6-5 14 3-1 6-8 3-5h2l5-10 6-8 5-9 4-10h2l1-9 1-3v-8l-4-8-5-3h-13l-19 10-4 1v2l-11 7-10 7-9 7-16 11-10 7h-3v2l-12 7-22 14h-3v2l-16 10-5 3-11 6-5 4-7 4-10 7-8 6-16 11-8 6-9 8-10 8-12 12h-2l-3 6h-2l-8 16-1 5-1 10v18l4 6 11 12 7 8 5 5 7 8 8 9 3 5 5 5 9 10 7 9 4 5 11 15 10 15 7 8 5 6v2h2l3 6v7l-9 10h-2v2l-9 5-8 6-11 8-10 7-10 8h-2v2l-6 5h-2l-1 3h-2l-2 4-6 11-2 13 2 14-4 6-14 6-5 2-3 2h-3v2l-5 1-2 4-8 6-28 24-10 9-12 12h-2l-2 4-8 7-10 9-12 12h-2v2l-7 6h-2v2l-12 8-11 6-5 2h-10l-9-4-7-5-5-7-5-14-1-19-2-3-5 16-1 10v15l2 9 4 9 6 8 7 5 11 4h12l19-5 9-5 9-6h2v-2l4-1 1-3 9-7 1-2h2v-2h2l2-4h2v-2h2l2-4 8-10 3-4 6-10 6-5 3-5h2l2-4 4-4h2l2-4 7-6 9-11 7-7h2l2-4 15-9 12-6 6-2h31l17 2 4-2v-7l-4-6-5-4-6-3-13-7-7-6-3-5v-8l4-6 14-10 6-4h2v-2l10-6h2v-2l17-9h2v-2l10-8 7-6 4-5 6-3 5 1 8 7 4 3v2l5 2 7 4 14 5 8-1 9-4 1-2 5-3 8-5 5 1 11 12h-3l-8-7-3-3-5 2-10 8-8 4h-14l-10-4-14-8-11-9-5-2-8 7-9 9-12 9-17 10-17 12-14 11-2 3 1 6 4 6 18 10 9 6 6 7 1 6-4 8-3 2h-8l-11-3-7-1h-12l-15 3-10 4-14 9-13 12-17 17-7 8-11 13-9 11-12 13-9 10-10 10-16 12-16 9-16 4h-17l-9-3-10-9-8-14-3-10-1-15 1-14 4-15 5-12 10-21 12-14 3-2-1 6-5 11-7 23-4 21v10l4 11 6 10 8 5 4 1h9l12-5 11-8 10-8 8-7 14-14 8-7 25-25 8-7 11-10 11-9 13-10 16-10 16-8-2-12v-10l4-11 10-13 10-9 16-11 20-14 11-9 8-7 5-6-10-14-13-18-20-26-14-18-12-13-7-8-12-12-7-8-8-9-2-1v-2l-4-2-2-4-1-8v-12l4-15 6-12 8-11 17-17 9-7 13-10 16-12 38-25 14-9 23-15 24-15 17-11 19-13 16-12 19-12 14-7zm159 332-6 3-3 3 1 5 4 5 17 12 3 2 4-1 14-10 12-8 5-5v-2l-13-2-20-2zm-6 78-6 10-7 19-2 9v10l3 14 5 13 7 12 8 11 11 11 15 10 14 6 12 3h17l14-3 12-5 11-7 11-10 6-5 10-14 1-2v-16l-4-6-26 4h-13l-13-4-9-6-7-7-6-12-1-4v-7l1-11-4-6-8-1-6 7-4-2-5-5-21-3-11-3z" fill="#AEA796"/>
<path transform="translate(423,614)" d="m0 0 7 1 2 1 2 53v20l25-13 15-8 19-9 16-8 37-17 15-6 8-1 2 5-1 6-7 6-16 8-23 11-39 19-38 19-11 6-1 14v10l6-2 21-10 32-16 27-13 39-18 9-4h5l5 6-1 4-8 7-15 7-23 11-32 16-17 8-15 8-21 10-11 7v68l6 96 3 32 3 17 3 6 14 7 9 2h11l4-1-1-6-9-22-1-9 4-11 7-8 10-6 13-3 13 1 23 5 48 14 35 5 4 2 1 5-3 6-9 6-9 1-13-2-17 2-21 6-19 10-14 9-8 6 2 14 4 13-1 10-5 15-2 4-4-1-4-9-4-18-6-16v-2l-16 2h-24l-12-3-11-6-10-10-6-12-6-33-1-12-2-129-1-33-4 1-17 9-14 9-12 8-9 1-2-1 1-8 3-5 7-6 20-13 18-11 7-5 1-24-23 11-17 11-16 11-3 2h-4l-2-6v-6l5-5 9-7 15-10 22-13 12-7 1-67 2-8 5-8zm77 323-5 5 1 6 7 12 9 10 5-2 22-12 9-7 1-3-15-4-15-5z" fill="#464439"/>
<path transform="translate(1544,243)" d="m0 0 5 1 8 9 4 8 1 10 11 19 7 16 2 9v13l-3 11-5 8-10 6h-8l-6-4-4-3h-6l-8 6-9 1-6-4-2-3-5 1-8 6-3 1h-17l-5-3-6-8-2-6-7 1-29 8-41 10-38 7-46 6-41 4-17 1-34 1h-18l-34-1-34-3-41-5-41-8-43-12-5-1-1 13-3 5-8-1-6-4-4-6-3-7v-11l-4-3-6-1-10 6-9 9-9 11-15 16-7 7-10 6-6 2-11-2-8-7-4-8v-13l1-2 6 1 5 6 5 2 6-1 11-7 12-14 10-13 13-14 14-7 4-1 18-1 5-3 14 10 16 8 27 9 26 7 26 5 38 5 53 5 24 1h34l33-2 49-5 47-7 51-10 44-10 10-1 5 12 7 6 7-1 9-6 11-10 4 1 4 9 5 2 6-2 2-4 8-9 7 1 2 8 3 5 6 4 5-1 1-1v-7l-7-16-14-27-7-15-4-10-1-9 4-4z" fill="#48473C"/>
<path transform="translate(491,153)" d="m0 0 5 1 7 6 4 8 4 3 2 8-2 6-4 4 3 16 4 33 3 14 3 31-1 18-2 11-6 7-8 7-5 12-1 3-2-1 3-12h-6l-5 2 1 5 5 6 2 4 2 18 6 9 4 3 5 1h11l11-4 11-7 9-8 17-17 8-7 16-16 12-11 10-8 11-8-2-4-7-7-9-13-2-6v-12l4-7 7-6 10-4h21l29 3 44 11 6 4 1 5-5 10-5 5-10 6-25 9-15 7-6 2 3 14 4 11v6l-5 6-6 2-14-7-7-8-1-4h-2l-3 4-3 16-1 12-2 1-1-7 2-17 1-2-5 4-5 2-13 10-21 21h-2v2l-8 7-12 12-14 11-12 7-13 4-9 1-10-2-6-4-6-7-6-12v-26h-2l-2 5-7 7-8 7-12 10-15 10-13 6-11 3-8 1-9-2-8-6-4-5-6-12-4-17 1-7 4-12 2-20 3-6 1-1 1-7v-16l3 3 4 10v13l-3 27v24l3 6 3 3 7 2h13l11-4 12-7 11-9 14-13h2l2-5v-9l-3-10-7-15v-7l4-8 3-2 6 1 7 8 4 5 7 4h6l5-2 1-4v-22l-7-44-4-22-4-28-3-13v-11l3-5zm137 101-4 1 1 4 14 10 8 7 8-1 30-12-1-2-13-4-15-3z" fill="#AEA796"/>
<path transform="translate(862,824)" d="m0 0 7 2 3 1 3 3 5 3v2h2v2l4 1 1 6-2 7 4 1 5 6v3l3 1 7 8 3 3v3h2l5 6 5 5 3 4v2h2l2 5h2l2 5h2l9 9v3l4 1 6 9 7 6 6 8 7 8 4 5 1 3 3 3 1 3 6 6 2 5 3 3v2h2l5 6 9 6 11 5h16l10-6 7-4 3-3 4-3 3 1 5 7v2h2l6 7 5 3 6 2v2l13-2 9-4 4-5v-6l-3-6 2-4 3 1v2h2v2l6 1v2l13 1 7 6 1 2 8 4 12 5 2 3-5 1-11-1-11-3-2-2-11-2-9 2-3 1-1 2-4 3-6 1-2 5-7 2-14-1-7-1-9-10-4-5-5-1-9 6-4 1-1 3-12 5-8-1-14-5-9-6-5-5-9-7-5 1-6 4-5 6-11 9-3 1v2l-17 9h-2v2l-10 6h-2v2l-11 7-11 8-3 5v8l5 7 7 5 10 5 10 6 5 6 1 7-5 5-20-2h-28l-10 4-12 6-12 8-5 5-12 13-5 5-6 7-7 6-1 2h-2l-2 5-3 1-2 4h-2l-2 5-3 6-5 5-9 12h-2v2l-4 4h-2v2h-2l-2 4-8 6-3 3h-2v2l-11 7-12 6-16 4h-12l-12-5-8-6-6-8-4-11-1-6v-15l2-13 4-14 4 4 1 19 5 14 4 5v2l4 2 7 4 5 2h10l9-4 10-6 7-5h2v-2l7-6h2v-2l8-7 10-10h2l1-3 8-7 10-9 4-4h2l2-4 8-8 11-9 15-13 11-9 4-4 5-1v-2l6-3 11-5 9-4 2-6-2-8 1-14 4-9 4-6 5-6 6-5h2v-2l6-4 11-9 5-2 6-2 4-3 6-2 12-9 7-5 5-5 4-6-1-8-4-6-13-16-8-10-7-10-2-5-4-2-8-11-4-5v-2h-2v-2h-2l-4-6v-2h-2l-1-5-4-2-8-9v-2l-4-2-7-8-3-4v-2l-3-1-1-4-4-2-5-5-6-8-4-4z" fill="#454338"/>
<path transform="translate(1218,722)" d="m0 0h1l1 32 1 115 1 25v67l3 10 8 8 13 9 19 9 5-1 8-9-2-4-12-12-6-10-1-4v-12l3-10 9-10 8-5 8-2h20l17 2 35 7 11 2 37 4 6 2-1 5-5 8-6 5-10 2-20 2-26 6-15 6-16 10-4 4h-2l8 16 3 2 36 1 4-3 1 3 1 4 8 5 18 8 11 7 10 9 6 8 5 3 9-3 15-10 12-11 10-15v-7l-4-3-18-6-6-4-5-6-3-12 1-10 4-11 4-6 8-7 4-2h13l10 5 7 7 6 12 4 16v16l-3 12-8 16-7 10-9 11-9 10h-2l-1 3-8 7-13 10-2 5-2 19-4 16-5 13-8 13-11 12-11 10-11 7-11 5-16 4h-24l-14-3-14-6-11-7-10-8-10-10-9-14-8-19-4-19v-23l2-15 11-33-14-10-11-9-12-13-5-2-10 9-8 7-14 8-3-1 14-8 9-9 5-6 5-3 7 1 8 7v3h2l4 5 14 10 5 4 7 5 1 5 5 1h15l18 4 13 2 18-1 5 3 3 3 1 9v8l3 14 7 8 7 7 8 4 8 2h14l17-3 7-1 4 3 1 6 5-1 4-15 4-6 6-5h3v-2l16-14 5-6 5-5 5-7 1-4h3l2-6 5-9 3-5 3-9v-25l-5-14-3-5v-3h-2v-2l-4-2-5-3-5-2h-11l-6 3-4 5-1 2h-2l-3 25 3 9 6 5 11 5 9 3 5 6 1 7-6 11-16 16-11 7-10 7-6 1-9-3-8-9-5-5-13-9-11-6-21-9-13-2-21-2-8-4-3-4-3-6 1-9 4-4 10-7 19-10 17-4 6-2 32-3 7-3 4-4 1-4-2-2-30-4-19-3-25-4-16-3-7-1h-21l-9 2-9 7-3 4v6l8-3h27l22 2 9 4 1 4-4 6-11 7-5 4-9 7-8 1-10-4-11-8-6-4-4-1 2 9 5 6 8 7 3 4v7l-2 6-6 3-1 1h-9l-16-8-13-8-6-3-4-5-4-9-1-3-1-66-1-49v-126zm59 220-6 3-3 3 1 5 4 5 17 12 3 2 4-1 14-10 12-8 5-5v-2l-13-2-20-2zm-6 78-6 10-7 19-2 9v10l3 14 5 13 7 12 8 11 11 11 15 10 14 6 12 3h17l14-3 12-5 11-7 11-10 6-5 10-14 1-2v-16l-4-6-26 4h-13l-13-4-9-6-7-7-6-12-1-4v-7l1-11-4-6-8-1-6 7-4-2-5-5-21-3-11-3z" fill="#AEA796"/>
<path transform="translate(827,611)" d="m0 0 5 2 4 7 9 25 3 11v4l-2 1-9 1-1 19v26l1 56 1 168v121l-2 16-5 15-6 12-6 5-4 1-3-2v-11l4-37 1-28v-47l-1-152-3-145-1-34-2-8 1-9 7-11z" fill="#454338"/>
<path transform="translate(761,153)" d="m0 0 6 3 8 13 5 11-1 3-4 3 1 13 3 10 2 23 6 37 4 31 3-10 6-12 4-4 9 1 2 1 1 4-3 16-1 4v21l4 6 6 4 6-1 7-6 6-12v-7l-4-17-1-7v-13l3-5 5-1 7 6 2 5 2 12 1 15 4 13 4 9 6 3h6l3-3-1-8-8-20-5-19v-12l1-2 6-1 7 3 4 6 4 21 7 22 1 6v9l-4 11-6 8h-2v2l-4 4h-2v-3l-12-3-8-4-7-5h-2l-7 8-7 6-5 2h-11l-8-4-9-10-4-6-6 11-5 6-9-1-3-1 2 6h2l2 4v7l-3 3-13 5-9 9-6 4-12 6-13 4h-8l-6-3-1-3 14-7 12-5 11-7 7-6 6-18 7-4-1-8-2-6v-10l4-15 2-12 2-1v16l1 13 4 7 7 1v-7l-5-14-5-24-1-2-2-21-5-32-5-35-4-22v-11l4-6z" fill="#AEA796"/>
<path transform="translate(404,212)" d="m0 0 16 2 29 9 19 5 14 2 5 4v6l-6 8-6 5-24 10-23 12-16 6-19 4h-7l-13-10-8-7-6-7-5-3-4 1-7 8-8 14-3 6 1 5 10 8 7 23v14l-5 4-9-1-14-8-7-6-6-7-4 1-6 9-1 3v8l6 16 16 37 8 23 4 11v7l-5 5-4-2-5-12-10-22-6-14-4-10-7-18-4-15v-20l3-10 7-10 8-9 8-7 10-20 13-19 11-11 9-6 7 1 8 3 7-13 8-7 8-4zm-7 24-8 4-3 5-1 6 3 8 6 4 10-1 15-5 19-9 2-4-8-3-21-5z" fill="#454338"/>
<path transform="translate(964,313)" d="m0 0h7l5 1 9-1 9 6h3l3 3 6 2 7 3 6 2 11 4 4 1v2h6l9 3 22 5 27 4 28 4 10 1 24 1h77l7-1 33-2 49-5 40-6 19-1 15-3 16-3 13-2 15-4 19-4h12l4 5 4 6 1 3h14l8-5h2l2-4 6-3 6 2 3 5 2 1h8l4-4 3-5 1-1h5l9 10 7 3h9l2 2v5l-7 6-2 1h-9l-10-6-5-1-14 7-6-1-6-4-1-1h-5l-8 6-7 3h-11l-2-1v-2l-4-1-4-5-3-7-3-2-7 1-25 7-14 4-22 5-6-1-17 3-21 3h-6l-8 2-28 4-36 3-17 1-7 1h-14l-22 1h-44l-37-3-3-1-15-2-25-3-22-4-20-4-15-4-20-6-5-2-10-3-10-4-13-7v-2l-6-1v-2h-2l-1 2h-8l-12 8-9 10-5 5-2 4-3 3h-2l-2 5-4 2-2 4-4 2v2l-11 7-7 2-8-2v-2l12-4 4-1 1-3 7-6 5-6 5-5 5-6 5-5 7-9 9-9 8-5z" fill="#24221B"/>
<path transform="translate(423,614)" d="m0 0 7 1 2 1 2 53v20l25-13 15-8 19-9 16-8 37-17 15-6 8-1 2 5-1 6-7 6-16 8-23 11-39 19-38 19-11 6-1 14v10l6-2 21-10 32-16 27-13 39-18 9-4h5l5 6-1 4-8 7-15 7-23 11-32 16-17 8-15 8-21 10-11 7v68l6 96 3 32 3 17 3 6 14 7 9 2h11l4-1-1-6-9-22-1-9 4-11 7-8 10-6 13-3 13 1 23 5 48 14 35 5 4 2 1 5-3 6-9 6-9 1-13-2-17 2-21 6-19 10-14 9-8 6 2 14 4 13-1 10-5 15-2 4-4-1-4-9-4-18-6-16v-2l-16 2h-24l-12-3-11-6-10-10-6-12-6-33-1-12-2-129-1-33-4 1-17 9-14 9-12 8-9 1-2-1 1-8 3-5 7-6 20-13 18-11 7-5 1-24-23 11-17 11-16 11-3 2h-4l-2-6v-6l5-5 9-7 15-10 22-13 12-7 1-67 2-8 5-8zm0 4-5 5-2 6-1 8v60l-4 7-10 7-10 6-5 2v2h-3v2l-5 1-6 3-7 5-5 3-6 6 2 4 6-1 14-8 13-8 16-7 6-3 5-1-1 26-3 5-9 6-12 7-11 6-14 10-4 4 1 5 13-5 13-7 7-4 9-5 6-3h5l1 3 1 21 1 93 2 46 2 27 2 6 2 12 6 11 10 9 6 4 6 3 9 1 2 1h19l4-1h15l5 9 6 17 4 4 4-2 1-3v-8l-2-9-2-8v-9l2-4 16-10 17-10 14-5 12-4 9-1h32l7-3 1-3-1-4-12-3-18-3-27-8-14-4-23-6-18-2-13 1-10 4-5 5-4 5-3 8 1 9 5 12 6 11v6l-6 4h-14l-10-2-9-4-7-6-4-10-3-17-3-44-2-31-2-17-1-34v-65l4-6 9-6 36-18 18-8 10-6 15-7 16-7 10-5 10-4 9-5v-2l3-1-1-6-7 1-10 4-32 16-25 12-7 4-7 3-18 8-16 8-9 4-7 1-2-2v-21l3-6 8-6 19-9 15-8 13-6 38-19 13-5 16-8 6-4 2-6-1-2-5 1-20 9-16 8-28 13-8 5-9 4-24 11-15 7h-5l-2-3-3-61-1-8z" fill="#AEA796"/>
<path transform="translate(687,931)" d="m0 0h8l10 6 7 7 8 16 2 7v19l-2 14-5 15-6 11-8 11-7 9-11 12-18 14-14 8-21 7h-16l-14-5-8-6-7-7-8-16-3-10v-18l4-14 4 2 4 9 2 5 2 10 6 12 4 2 11 5 8 2 13-1 15-5 13-7 16-13 3-1 2-4 10-9 8-10 4-6v-6l-3-3-18-3-9-4-7-6-3-8v-11l4-12 6-9 7-6zm-2 26-2 2 1 5 8 4 5-1-1-5-5-4z" fill="#454338"/>
<path transform="translate(625,236)" d="m0 0h32l18 2 19 3 6 2 16 3 7 4 1 8-6 8-8 5-15 6-16 6-16 8-1 2v7l3 7v17l-3 2h-6l-9-6-6-12v-2l-6 2-11 8-7 5-6 7-11 9-7 8-11 11-8 7-4 4h-2l-2 4-8 7-5 4h-2v2l-8 6-15 7-13 2-7-2-9-5-3-4v-2h-2l-4-8-1-9 2-1 7 3v2h2v2l5 2 7 3h10l10-3 11-7 11-10h2v-2l7-6 3-4h2l2-4 11-9 18-18h2l1-3 4-1v-2l17-12 7-5 2-3-1-7-13-12-5-9-1-6v-8l3-7 7-5zm3 18-4 1 1 4 14 10 8 7 8-1 30-12-1-2-13-4-15-3z" fill="#454338"/>
<path transform="translate(749,931)" d="m0 0 7 1 7 8 2 4v14l4 6 8 9 8 12 4 12 1 12-2 11-6 11-4 5-14 11-18 13-14 11-18 13-7 6-14 10-13 8-17 7-47 14-23 8-24 8-7 1 5-4 16-11 18-11 28-16 22-12 10-6 19-11 44-26 13-9 12-8 18-15h2l4-8-1-6-7-12-9-12-6-10-2-6-2-12-4-9 1-6z" fill="#454339"/>
<path transform="translate(733,153)" d="m0 0 4 2 10 19 1 8-3 7 3 27 4 23 6 40v18l-4 9-3 7-7 8-6 5-6 2h-7v13l-4 13-9 10-7 8h-2l-1 3-10 8-10 7-13 6-12 3h-15l-8-3-7-6-5-7-3-10v-16l2-10h6l1 12 4 8 6 7 6 2h9l13-3 11-6 17-12 6-5 7-8 4-6-2-10-5-12-5-11v-8l3-5 8-7 3 3 5 10 5 5 5 4 7 1 5-3 2-5-1-22-4-26-5-36-6-40-2-9v-5l5-5z" fill="#AEA796"/>
<path transform="translate(404,212)" d="m0 0 16 2 29 9 19 5 14 2 5 4v6l-6 8-6 5-24 10-23 12-16 6-19 4h-7l-13-10-8-7-6-7-5-3-4 1-7 8-8 14-3 6 1 5 10 8 7 23v14l-5 4-9-1-14-8-7-6-6-7-4 1-6 9-1 3v8l6 16 16 37 8 23 4 11v7l-5 5-4-2-5-12-10-22-6-14-4-10-7-18-4-15v-20l3-10 7-10 8-9 8-7 10-20 13-19 11-11 9-6 7 1 8 3 7-13 8-7 8-4zm-4 5-9 2-10 10-2 4v5l10-1 6-3 7-1 17 2 20 6 5 2-1 4-3 4-16 8-14 5h-18l-7-6-6-11-7-4-9-4h-10l-10 10v4h-2l-3 4v2h-2v2h-2l-2 6-5 5-6 10-4 7-1 3-4 2-4 4v2l-4 2-7 10-2 4v3l7-1 5-3 7 1 2 5 3 4h2l2 4 14 8h7l2-4v-8l-5-17-6-10-4-6-1-7 3-8 3-7v-4l2-1v-2l2-3h2v-2l5-1 5-3 5 1 11 10 5 5 12 9 7 2 13-2 12-4 18-7 16-8 22-9 6-4 3-4 1-5-2-5-6-2-15-2-21-5-16-5-11-2zm-3 19-8 4-3 5-1 6 3 8 6 4 10-1 15-5 19-9 2-4-8-3-21-5z" fill="#AEA796"/>
<path transform="translate(1250,1073)" d="m0 0 3 2 5 12 5 10 3 5v3h2l6 10 12 12v2l4 2 9 6v2l6 1 6 4 16 5 10 1 16-1 21-7 17-12 8-6 2-4 8-5 3 1-5 15-1 2h-2v5l-14 14-14 10-13 6-16 4h-24l-14-3-12-5-5-5-7-4-9-8-6-5-8-11-2-6h-2l-8-20-2-8-1-17 1-5h2z" fill="#4B493D"/>
<path transform="translate(827,611)" d="m0 0 5 2 4 7 9 25 3 11v4l-2 1-9 1-1 19v26l1 56 1 168v121l-2 16-5 15-6 12-6 5-4 1-3-2v-11l4-37 1-28v-47l-1-152-3-145-1-34-2-8 1-9 7-11zm-2 6-5 4-4 8-1 8 2 22 1 30 1 100 1 52v27l1 119v32l-1 27-3 34v7l2 2 4-1 6-12 3-8 2-15 1-16v-55l-2-178v-141l4-6 4-3 1-7-6-21-4-7-3-2z" fill="#AEA796"/>
<path transform="translate(1116,619)" d="m0 0 10 1 2 2 2 12-3 9h-2l-1-4 1-2-2-1-2-3h-6l-15 9-3 1v2l-20 12-10 7-19 12-8 6h-3v2l-13 8-11 7-9 6-17 11-8 5h-2v2l-10 6h-2v2l-11 7-6 5-5 3-9 7-5 2v2l-5 3-3 1v2l-19 13-11 9h-2l-1 3-11 8-5 5-5 4h-2v-6l7-10h2l1-4 6-7 7-6 8-8h2v-2l9-7 13-10 9-6 11-8 12-9 11-6 5-4 9-5 20-12 12-8 11-7 9-6 14-9 15-10 11-8 11-7h2v-2l22-14z" fill="#24221B"/>
<path transform="translate(667,756)" d="m0 0h5l1 5-3 6-7 6-39 19-34 16-20 11-58 29-22 12-11 7-14 9-10 6h-2l-2-4 1-8 7-8 14-10 24-14 23-13 19-10 17-8 16-8 21-10 16-8 43-20 10-4z" fill="#46453A"/>
<path transform="translate(1470,752)" d="m0 0h7l2 4-1 4-5 6-10 5-28 13-72 36-19 10-16 8-28 15-19 11-15 10-7 1-2-3v-6l4-6 12-9 19-12 16-9 27-15 16-8 26-12 16-8 23-11 12-6 26-12z" fill="#46453A"/>
<path transform="translate(897,1069)" d="m0 0 6 1 1 3 7 1v2h4v2h3v2l5 2 3 1v2h2l1 3-3 2-31-1-11 1-2 1-2-1v2l-10 4-7 3h-3v2l-7 4-5 4-5 5-9 7-3 4h-2v2h-2l-2 4-10 10-7 8-8 10h-2l-2 4-10 11-8 10h-2v2h-2l-2 4-10 10h-2v2h-2v2h-2v2l-5 3-7 5-17 8-10 1h-12l-12-5-5-6-2-1-6-12-1-18 1-2 3 1 3 9 4 7 5 5 1 3 4 1 6 3 10 1 10-3 10-5 15-11 5-5h2l2-4 10-8 11-11 7-6 12-12h2l2-4h2l2-4 5-4h2l1-3 5-5h2l2-4 10-7h2l2-4 10-8 3-1v-2l14-9 10-5 11-4 5-3h2l2-7z" fill="#24221B"/>
<path transform="translate(628,240)" d="m0 0h33l11 1 5 1 12 2 23 5 7 4 1 3-3 6-7 4h-2v2l-20 8-2-1v2l-7 3-8 4-7 1v2l-5 3h-2v13l4 10 1 3-1 6-8-1-4-7-3-8 1-2-2-1-1-1h-7l-10 7h-3l-1 3-4 2-4 5-3 1-7 8h-2v2h-2l-2 4-11 10h-2v2h-2l-2 4-8 7-3 3h-2l-2 4-6 7-6 4-4 4h-2v2l-11 7-11 5-3 1h-12l-12-8-1-3h7l5 1 8 1 14-4 9-5 13-11 10-9h2l1-3 6-5 5-5 4-5h2l2-4 12-11 3-1v-2l9-9 4-1 3-1v-2l4-3h2l1-3 5-3 4-3 2-6-2-9h-3l-1-3 2-2 5 4v2l6 1 2 1h9l9-2 10-5 9-3 5-1 1-2 6-3 2-3h2l-2-5-6-4-11-3-9-2-11-1h-38l-2-1 2-5z" fill="#24221B"/>
<path transform="translate(1276 1e3)" d="m0 0h2v3l6 1 7 3h7l5-3 4 1 1-2 10 4 14 1 5 1 16 2 8 4 9 3 14 7 1 3 5 2 4 4v2l4 2 4 4v2h2l3 5 5 3v2l9-1 12-6h2l1-3 7-4 5-2v3l-8 7-14 12-5 5-3 6-5 1h-8l-5 2-23 3-12-2-10-6v-2l-4-2-7-8-3-6 1-5 6 2 5 6 5 2 2 2 8 4 12 2h7l5-1v-2l5-2 2-3v-6l-5-7-7-5v-2l-4-1-2-1v-2l-6-1-6-4-7-2h-7l-11-1-5-1v-2l-11-1h-13l-16-2-10-1-8-3-11-1h-5v-2h-2v-3l-6-2-4-4 3-1 10 2h6l4-1z" fill="#24221B"/>
<path transform="translate(1544,243)" d="m0 0 5 1 8 9 4 8 1 10 11 19 7 16 2 9v13l-3 11-5 8-10 6h-8l-6-4-4-3h-6l-8 6-9 1-6-4-2-3-5 1-8 6-3 1h-17l-5-3-6-8-2-6-7 1-29 8-41 10-26 5h-6v-1l21-4 5-2 26-6 22-5 6-2 21-6 7-1 5 4 3 7 2 4 4 1v2h13l10-5 5-4h5l5 4 5 2 6-1 11-6 5 1 10 6h9l8-6v-5l-4-1-9-1-6-4-7-8h-5l-6 9-2 1h-8l-5-5v-2l-6-1-6 3-5 5-7 4h-11l-3-1-6-9-3-4h-12l-32 7-2 1-13 2-20 4-11 2h-12v-1l51-10 44-10 10-1 5 12 7 6 7-1 9-6 11-10 4 1 4 9 5 2 6-2 2-4 8-9 7 1 2 8 3 5 6 4 5-1 1-1v-7l-7-16-14-27-7-15-4-10-1-9 4-4z" fill="#ADA695"/>
<path transform="translate(1463,323)" d="m0 0h12l4 5 4 6 1 3h14l8-5h2l2-4 6-3 6 2 3 5 2 1h8l4-4 3-5 1-1h5l9 10 7 3h9l2 2v5l-7 6-2 1h-9l-10-6-5-1-14 7-6-1-6-4-1-1h-5l-8 6-7 3h-11l-2-1v-2l-4-1-4-5-3-7-3-2-7 1-25 7-14 4-22 5-4-1 2-2 14-5 14-2 5-2 16-4 11-2 5-3 11-1v-2l-9-1-1 3-6-2-10 3-4 2-43 8-21 3-20 2-14 3-20 1-10 2-38 3h-15l-19-1v-1l33-2 49-5 40-6 19-1 15-3 16-3 13-2 15-4z" fill="#454439"/>
<path transform="translate(862,824)" d="m0 0 7 2 3 1 3 3 5 3v2h2v2l4 1 1 6-2 7 4 1 5 6v3l3 1 7 8 3 3v3h2l5 6 5 5 3 4v2h2l2 5h2l2 5h2l9 9v3l4 1 6 9 7 6 6 8 7 8 4 5 1 3 3 3 1 3 6 6 2 5 3 3v2h2l5 6 9 6 11 5h16l10-4 3 1v2h-2l-2 4-4 1v2l-5 3-9 2-9-2-16-8-5-4-1-2-4-2-3-3-8-3-7 3-6 7-7 6h-2v2l-21 15h-3v2l-5 1v2l-11 6-4 1-2 4-10 4-1-2h2v-2h2v-2h2v-2l10-8 4-4h3l1-3 3-1 1-2 9-5 3-3 7-4 16-12 5-5 4-6-1-8-4-6-13-16-8-10-7-10-2-5-4-2-8-11-4-5v-2h-2v-2h-2l-4-6v-2h-2l-1-5-4-2-8-9v-2l-4-2-7-8-3-4v-2l-3-1-1-4-4-2-5-5-6-8-4-4z" fill="#24221B"/>
<path transform="translate(522,154)" d="m0 0h6l4 4 4 10 4 4 1 9-1 5 1 17 2 23 5 32 3 22 1 4v14l-2 13-5 12h-4l-3-12-1-22-3-23-3-14-4-29-6-36-4-20 1-8 1-3z" fill="#AEA796"/>
<path transform="translate(890,154)" d="m0 0 7 1 6 7 8 15-1 5-3 5 1 16 7 45 4 22 1 8v16l-1 17-3 9-4 3-2-3-5-36-3-12-3-29-4-27-4-25-4-24-1-12z" fill="#ADA695"/>
<path transform="translate(749,931)" d="m0 0 7 1 7 8 2 4v14l4 6 8 9 8 12 4 12 1 12-2 11-6 11-4 5-14 11-18 13-14 11-18 13-7 6-14 10-13 8-17 7-47 14-23 8-24 8-7 1 5-4 16-11 18-11 28-16 22-12 10-6 19-11 44-26 13-9 12-8 18-15h2l4-8-1-6-7-12-9-12-6-10-2-6-2-12-4-9 1-6zm2 5-2 1v2h-3l1 5 3 9 1 11 6 11 4 5 9 13 1 2h2l2 5 3 8-2 6-15 14-11 8-9 6-5 3-7 5-7 4-18 11-24 14-5 2-5 4-12 6-8 5-5 2v2l-6 2-10 6-8 4v2l-4 2-10 6-4 2-3 5 2 1 17-5 15-5 21-6 16-6 10-5 7-5 6-3 16-12 14-10 15-11 4-3v-2l5-2 11-8 8-6 2-1v-2l4-2 8-8 4-8 3-13-1-8-3-9-5-10-7-9-6-8-3-7-2-13-5-5z" fill="#AEA796"/>
<path transform="translate(687,931)" d="m0 0h8l10 6 7 7 8 16 2 7v19l-2 14-5 15-6 11-8 11-7 9-11 12-18 14-14 8-21 7h-16l-14-5-8-6-7-7-8-16-3-10v-18l4-14 4 2 4 9 2 5 2 10 6 12 4 2 11 5 8 2 13-1 15-5 13-7 16-13 3-1 2-4 10-9 8-10 4-6v-6l-3-3-18-3-9-4-7-6-3-8v-11l4-12 6-9 7-6zm-1 4-6 3v2l-4 2-4 6-4 11-1 10 4 10 9 6 10 3 13 2 4 7v7l-3 5-13 13v2h-2v2h-2l-6 7-8 7-13 10-8 4-12 5-5 1-16 1-13-3-8-4-8-7-7-10-3-1-1 1v9l5 16 7 9 8 6 8 4 9 2h14l10-2 19-9 11-8 14-11 5-6 5-5 8-11 5-8 3-7 3-9v-8l3-1 3-14v-16l-3-8-4-9-7-9-9-6z" fill="#AEA796"/>
<path transform="translate(936,613)" d="m0 0 10 1 5 4 6 14-1 7-3 4 1 4 5 11v5l-3 3-14 3-10 9-5 6h-2l-1 3-8 7-8 9-8 7-9 8-5 1-4-4-1-4 9-10 13-13 11-9 13-13 5-7-2-5-5-10-1-12 2-9 4-7zm-2 18 1 4 4 3h5l-1-5-5-2z" fill="#AEA796"/>
<path transform="translate(985,303)" d="m0 0 5 3 14 9 17 8 32 10 21 5 28 5 39 5 45 4v1h-24l-22-3-31-3-38-6-10-2-9-3-16-4-25-9-9-5-7-4-8-3h-26l-11 6-7 5-6 8-5 5-5 7h-2l-2 4-7 8-5 5-9 7-8 2h-8l-2 1 1 5 3 5 5 3h8l10-6 10-8 3-3h2l2-5 3-4h2l2-4 6-8 10-10 10-6 7-2 10 4 3 9 1 7 4 8 6 2 3-6v-7l1-1h9l18 6 20 5 22 6h7l21 4 15 3 16 1 24 3 40 2 62 1v1l-34 1h-18l-34-1-34-3-41-5-41-8-43-12-5-1-1 13-3 5-8-1-6-4-4-6-3-7v-11l-4-3-6-1-10 6-9 9-9 11-15 16-7 7-10 6-6 2-11-2-8-7-4-8v-13l1-2 6 1 5 6 5 2 6-1 11-7 12-14 10-13 13-14 14-7 4-1 18-1z" fill="#AEA796"/>
<path transform="translate(1470,752)" d="m0 0h7l2 4-1 4-5 6-10 5-28 13-72 36-19 10-16 8-28 15-19 11-15 10-7 1-2-3v-6l4-6 12-9 19-12 16-9 27-15 16-8 26-12 16-8 23-11 12-6 26-12zm0 4-20 8-16 8-20 9-8 4-7 4-7 3-23 11-16 8-15 8-8 4-11 6-15 8-17 10-12 7-12 9v4h6l17-10 7-4 9-5 23-12 16-8 17-8 20-11 21-10 38-19 19-8 10-5 5-3 2-4v-4z" fill="#AEA796"/>
<path transform="translate(667,756)" d="m0 0h5l1 5-3 6-7 6-39 19-34 16-20 11-58 29-22 12-11 7-14 9-10 6h-2l-2-4 1-8 7-8 14-10 24-14 23-13 19-10 17-8 16-8 21-10 16-8 43-20 10-4zm-4 5-12 5-12 6-9 4-21 9-15 8-19 9-9 5-7 3-32 16-17 10-11 6-5 2-13 8-9 5-9 7-5 5-1 2 1 2 7-1 8-4v-2l5-2 9-6 6-3 19-10 16-8 11-6 17-9 9-4 15-8 23-11 17-8 16-8 17-7 10-5 5-6-2-4z" fill="#ADA696"/>
<path transform="translate(426,846)" d="m0 0 2 1 2 11 1 16 2 15 1 13v11l1 17 1 15 4 20-1 2h2l1 6h2l1 4 4 2 10 6 9 2 11 1h10l8-4 3-5v-6h4v2l4 1h10l9-3 2-2 4-1 6-5 3 1v3l-4 2-5 1v2l-5 4-7 4-5 3-4 9-28-1-2 1h-21l-5-2-12-7-7-6v-2l-2-1-1-3-3-3-2-10-2-21-1-8-1-20v-50z" fill="#24221B"/>
<path transform="translate(1453,358)" d="m0 0h16v11l-2 5-1 1-18 2-4 2h-6l-4-2h-8l-18 6-21 8-21 4-10 1h-9l-3-1v-2l16-5 14-6 26-11 24-11 3-1h9l7 2 7-1z" fill="#AEA796"/>
<path transform="translate(427,294)" d="m0 0 14 1 7 3 2 3-1 7-8 6-10 5-7 6v6l2 4h8l15-8 6-7 3-1 1 2v6l-6 10-7 8-12 6-8 1-11-4-5-6-2-9 8-16 2-5-4-3v-6l4-6z" fill="#AEA796"/>
<path transform="translate(1256,1105)" d="m0 0 5 2 5 5 5 7 4 4 4 5 7 6 3 3 12 8 8 4 13 4 12 1h17l11-3 7-3 8-3 8-5 5-3h3v-2h2l-2 6-4 2-1 3h-2v2l-15 10-10 5-10 3-17 1-12-1-17-5-11-6-15-11-4-5v-2l-3-1-6-7-6-11z" fill="#24221B"/>
<path transform="translate(843,272)" d="m0 0 4 1 2 6 3 24 4 11 5 9 8 6h11l5-3 3 5-3 10-5 3-6 1-10-3-15-9h-2l-6 8-6 5-7 2h-8l-9-3-5-6-3-10 1-6 4 1 1 4 4 2 9 3h8l9-6 4-7 2-19-3-14-1-12z" fill="#46443A"/>
<path transform="translate(401,221)" d="m0 0 14 1 12 2 9 3 7 1v2l13 2 13 3 7 3 1 4-7 6-13 5-14 7-11 4h-2v2l-6 3-2-1v2l-7 1-4 2-13 3-2-1v2l-11-3-11-9-8-7-5-5-7-4 1-4 6-2 6 2 6 4 12 15 3 1v2l7 1h16l12-5 10-4 14-7 2-3h2l-3-9-6-3-22-5-8-3h-22l1-4z" fill="#24221B"/>
<path transform="translate(717,339)" d="m0 0 3 1v8l-5 10-10 10-4 2v2h-2v2l-6 4h-2v2l-13 8-12 6-8 2h-12l-6-2-6-3v-2h-2v-2h-2v-2h-2l-2-3-1-8 4-1 8 4 6 2h16l12-4 10-7h3v-2l6-4 13-11 10-9h2v-2z" fill="#454439"/>
<path transform="translate(769,1028)" d="m0 0 3 1-1 4h-2v2l-6 4h-2v2l-9 7-7 5-1 2h-3v2l-4 2-1 2h-3v2l-12 8-12 9-12 7-1 2-3 1-1 2-8 4-10 6-8 4h-4v2l-7 2-12 5-9 2-7 2-4-2 2-2 14-8 32-18 11-6 13-8 10-6h2v-2l14-7 13-8 7-5h2v-2l10-5 3-1v-2l5-2z" fill="#24221B"/>
<path transform="translate(870,149)" d="m0 0h9l4 2 1 5-7 7-15 2-15 6-10 5-20 11-19 13-9 7-8 3-3-7 1-4 10-9 18-12 15-9 25-12 19-7z" fill="#AEA796"/>
<path transform="translate(478,339)" d="m0 0 2 1 1 3v9l-7 9-14 11-11 9-14 8-13 5-4 1h-11l-10-4-5-5-5-8v-8l6 1 5 4 9 4h14l14-5 5-2v-2l5-3 8-6 9-7 10-10 2-3z" fill="#46453A"/>
<path transform="translate(1285,925)" d="m0 0h18l24 4 2 1 12 1 6 2 12 2 8 2 26 2 7 2-1 3-8 4-29 2-13 4-18 5v-3l7-5 1-6-3-1-2-2-14-5-14-1-6-1-28-2 1-2h2l1-3z" fill="#24221B"/>
<path transform="translate(709,157)" d="m0 0 9 1 3 5-1 7-7 4-1 7h-1l-2-6-6-1-20 8-12 6-17 11-15 12-6 3-5-1-2-6 2-4 15-12 10-7 24-14 21-9z" fill="#AEA796"/>
<path transform="translate(400,217)" d="m0 0h12l15 3 16 5 21 5 15 2 3 2 1 6-3 6-5 4-19 8-11 5-13 6-9 4h-10l2-3 5-1 2 1v-2l8-2v-2l17-7 5-3 10-4 9-4 5-4-1-4-9-3-23-5-7-2-10-3-18-3h-7l-10 4 1 2h21l7 2v2l9 1 16 4 5 5 1 7h-2l-2 4-15 8-16 6-3-1 3-4 12-5 13-7 3-5v-2l-9-3-16-5-18-2-8 2-8 3h-6l1-7 7-8 4-4z" fill="#454338"/>
<path transform="translate(508,923)" d="m0 0h14l19 3 7 2 11 3 13 4 8 3 5 1v2l9 1 16 3 4 2v2h-14l-10-1-1 2-8 1-10 4-10 3-12 7-5 2-2-4 7-4h2l1-3 4-1 2-6 2-2-2-6h-2l-1-2-5-1-12-3-9-3-14-1-4-1-4 1v-2h-2v2l-5-1-4 1 2-4 6-3z" fill="#24221B"/>
<path transform="translate(1451,940)" d="m0 0 9 1 2 1v2l4-1 2 3 4 4 1 4h2l5 14 1 5v12l-2 11-3 4h-4v-5h-2v-2l-4-2-11-4-10-3-4-2v-3h-2l-1-6 4-2 9 3h8l8-2 1-5-4-9-5-3-6-3-7-1-4 1-1-2h3l-1-4 4-4z" fill="#24221B"/>
<path transform="translate(721,858)" d="m0 0h3l-1 6-4 5-12 5-16 8-19 10-19 9-18 10-12 8h-8l1-6 9-8 20-12 19-10 28-13 25-11z" fill="#AEA796"/>
<path transform="translate(1208,626)" d="m0 0 5 1 1 6v3l3 1-1 2 4 2v7l-1 3-4 4-1 8v37l1 5 7 2h5l1 2-5 2-8 6-3 6 1 10-2 3-1-4-3 1-3-3-4-5h-4l2-5h3v-2l3-3 1-3-1-2 1-7v-36l-1-9v-11l-1-9 2-9z" fill="#3C372D"/>
<path transform="translate(699,1022)" d="m0 0 1 3-5 9-4 5h-2l-2 4-7 8-8 6-5 5-4 1-1 3-6 2-4 1v2l-10 3v2h-9v2l-15-1-10-2-9-4-8-7-1-5h-2l1-3h4l2 2 9 4 12 3 22-1 11-4 16-9 15-11 4-4 8-7 5-6z" fill="#24221B"/>
<path transform="translate(1058,832)" d="m0 0 4 2-1 5-5 4-56 28-34 18-10 6-2-4 1-5 7-6 26-15 19-10 24-11 23-11z" fill="#AEA796"/>
<path transform="translate(952,228)" d="m0 0 11 4 8 6 3 7-3 7-7 6-8 3-6 2v24l-3 12-3-1 1-5h-2l-3-6-1-12 2-6-3-3v-11l5-9 3-11z" fill="#AEA796"/>
<path transform="translate(749,786)" d="m0 0h13l10 3 5 6v6l-8 11-10 7-18 5-5 2h-4l2-4 10-7 6-4 4-5 1-3-8 1h-15l-3-4v-6l4-4 9-3z" fill="#AEA796"/>
<path transform="translate(1109,975)" d="m0 0 4 1v2h2v2l6 1v2l13 1 7 6 1 2 8 4 12 5 2 3-5 1-11-1-11-3-2-2-11-2-9 2-3 1-1 2-4 3-6 2-7 1h-8l-10-3-6-3-5-5-4-5-5-3-2 1-1-5 4-2 1-5 3 1 5 7v2h2l6 7 5 3 6 2v2l13-2 9-4 4-5v-6l-3-6z" fill="#24221B"/>
<path transform="translate(1477,833)" d="m0 0h5l1 2-3 5-22 12-23 12-16 8-16 9-21 12-7-1 1-5 8-7 17-11 28-14 20-9z" fill="#AEA796"/>
<path transform="translate(887,950)" d="m0 0h29l4 7v9l-6 8-8 6-10 5-16 3v-3l11-8 6-5 3-5h-18l-6-2-2-2 1-7 4-4z" fill="#AEA796"/>
<path transform="translate(1125,804)" d="m0 0h17l9 2 1 1v13l-4 6-9 8-12 5-10 2-8 1 2-4 9-5 4-4 8-3 2-4-26-1-1-1v-8l3-5 5-2z" fill="#AEA796"/>
<path transform="translate(350,348)" d="m0 0 7 1 11 7 3 6-1 5-8 7-16 7-2 2 2 9 3 9-1 8-3 9-2 1-4-18-4-9-1-15 7-15 3-7z" fill="#AEA796"/>
<path transform="translate(1112,879)" d="m0 0 8 1 5 4h5l3-4 7-1 7 3 5 6 1 2v8l-4 6-5 4-6-2-6-5-5 1-8 6-6-2-5-5-4-11 4-8z" fill="#464439"/>
<path transform="translate(472,170)" d="m0 0 5 1 4 7 1 4v10l-2 7-2 2-16 4-6 3-5-1-5-10-2-9v-5l5-4 7-2 2 3 1-4z" fill="#AEA796"/>
<path transform="translate(582,169)" d="m0 0h6l3 2 2 5-1 7-9 8-3 2-2 10-5 10-4-1-7-7-11-4-5-5v-7l4-6 4-2 7 1 8 4h2l5-14z" fill="#AEA796"/>
<path transform="translate(837,210)" d="m0 0 5 1 5 6 1 3v11l-4 7-5 3-13 3-6 1-5-4-4-11-1-10 13-5 9-4z" fill="#AEA796"/>
<path transform="translate(423,636)" d="m0 0h1v9l-1 3h2l1 31 1 11 1 4h6l5 3-3 1-1 2-4 1-1 4-2 1-1 18 1 11 2 1v2l9 1 1 2h-5l1 2-5 6-2 2v2h-2l1 5-2 11-2 2-3-6v-4h-2v-3l-3-1h2l-2-4h2l1-5 1-2v-22l-2-9-1-3-4-1 2-3 4-7 1-9v-53l3-1z" fill="#24221B"/>
<path transform="translate(826,624)" d="m0 0 2 1v2l2 1 2 5 3 11-1 8-3 1-3 9v33l1 88-1 26-1 7v13h-2v-34l-1-27v-30l-1-14v-28l-1-42-2-15 1-10z" fill="#24221B"/>
<path transform="translate(693,192)" d="m0 0h6l3 3 3 12v8l-4 6-3 3h-8l-5 2-3 2-7-1-4-5-3-14 1-5 4-4h5l1 3h2l1-5z" fill="#AEA897"/>
<path transform="translate(962,182)" d="m0 0 6 1 4 8 1 4-2 4-9 6-6 1 2 5-1 8-4 6-3 2-4-6-5-3-7-1-6-5-2-4 1-6 5-6 2-1h6l12 6 1-10 4-6z" fill="#AEA796"/>
<path transform="translate(1208,741)" d="m0 0h5v124l1 90-1 8 1 5-1 3h-2l-1 2-2-4 1-114-1-15 1-2-1-8v-17l-1-2h2l-1-10v-35l-1-9v-10z" fill="#24221B"/>
<path transform="translate(355,286)" d="m0 0 9 2 4 4 1 3 1 12 7 7 1 2v6l-7 8-2 1h-7l-5-2-3-5-2-10-2-5-4-5-1-2v-8l3-5z" fill="#AEA796"/>
<path transform="translate(967,348)" d="m0 0h5l4 5 2 4-1 8-4 3-13 3-6 10-10 9-11 5-9 1-5-2 1-3 5-5 18-14 15-14 2-7z" fill="#AEA796"/>
<path transform="translate(1548,250)" d="m0 0 4 2 3 3 3 10 2 8 5 8 6 9 8 20 2 11-3 6h-4l-4-10-9-19-6-9-7-14-6-15v-7l1-2z" fill="#46453A"/>
<path transform="translate(731,162)" d="m0 0 5 1 4 4 3 8-1 12v12l1 16 1 5 3 16 1 8 2 6 1 16-1 10-4 4-3-8-1-19-2-12-3-10-2-21-1-16-2-8-2-7v-14z" fill="#46453A"/>
<path transform="translate(468,292)" d="m0 0h6l4 5 5 5 5 4 4 2h10l4-2h4v2h3l-1 4-6 9-8 3-9 1-7 3-5-1-10-19-1-3v-10z" fill="#46453A"/>
<path transform="translate(1353,620)" d="m0 0h6l6 4 7 11 4 9 5 8v15l-4 8-4-2-5-13-6-18h-12l-4-2-2-4 1-7 5-7z" fill="#AEA796"/>
<path transform="translate(616,682)" d="m0 0 6 1 7 7 8 14 6 16v7l-3 10-4 1-10-28-1-5-13-1-5-5v-8l5-7z" fill="#AEA796"/>
<path transform="translate(686,311)" d="m0 0h6l4 3 1 4v7l-5 5-9 2-3 1-7 12h-2v2l-9 6-12 5-5 1-2-3 5-9 14-11 7-6 6-3 4-10z" fill="#ABA493"/>
<path transform="translate(763,1086)" d="m0 0h1l-1 17-3 10 1 7 3 2h7l4-1 4 2 1 5-3 8-4 5-6 3-6-1-6-4-4-7-1-4v-12l5-18 4-8z" fill="#AEA796"/>
<path transform="translate(707,293)" d="m0 0 5 2 3 2v2h2l5 6 5 3h12l8-1 1 3-4 8-8 5-14 3-3 3-4-1-12-24v-7z" fill="#454439"/>
<path transform="translate(515,745)" d="m0 0h2l-1 8v15l-2 8v5l5 3 5-3 5 2 1 4-1 8-3 5-5 3h-7l-6-3-4-5-2-6v-8l6-23 6-12z" fill="#AFA897"/>
<path transform="translate(723,638)" d="m0 0 1 4-2 25v12l3 2 6-1 5-1 1 1v10l-5 8-3 2h-10l-6-4-4-10 1-11 5-19 6-12z" fill="#B0A998"/>
<path transform="translate(690,940)" d="m0 0 7 1 5 5 2 1 9 19 2 6-2 16-3 3-7-5-16-3-9-4-5-5-1-4 2-2 7 5 18 2 5-3 3-5-3-8-1-3-5-2-5-3h-9l-3-1-1-5 4-3z" fill="#24221B"/>
<path transform="translate(1437,666)" d="m0 0 3 2v7l-4 10v9l2 10 4 2 6-3 5 1 1 6-5 10-6 5h-7l-6-4-4-6-1-3v-9l3-15 8-21z" fill="#AEA797"/>
<path transform="translate(580,229)" d="m0 0 8 1 4 4-1 9-6 10h-2l-2 4-3 3-5 1-2-1v4l-4 1-3-3 3-3h3l-9-11v-6l5-8 7-4z" fill="#AEA796"/>
<path transform="translate(1306,704)" d="m0 0h2v6l-1 4v9l-3 7 2 7 3 2 11 1 1 1v10l-4 5-7 3-7-1-5-4-4-10 1-12 3-17 3-5 4-4z" fill="#AEA796"/>
<path transform="translate(302,237)" d="m0 0h10l3 3v7l-3 8-9 10-9 5-4 1 1-4 2-4v-2l-5-2-4-3 1-7 6-7 7-4z" fill="#AEA796"/>
<path transform="translate(333,189)" d="m0 0h6l6 5 5 10v8l-4 8-5 4-10-1-4-4v-20l2-7z" fill="#AEA796"/>
<path transform="translate(427,758)" d="m0 0h1v28l1 37 1 25v7l-2-2-1-6-1 17v47l1 28-2-2-2-43v-78l-1-18v-10l-2-17-1-10h2l3 9 2-5z" fill="#3C372D"/>
<path transform="translate(321,294)" d="m0 0 4 1v2h3l7 10 5 9 1 4v9l-1 2-8-1-6-4-5-6v-2l-2-1v-3l-10-5 2-7 5-5z" fill="#24221B"/>
<path transform="translate(1512,259)" d="m0 0 5 3 6 9 2 9-1 8-4 6-4 3h-6l-5-4-2-5v-9l2-11 6-8z" fill="#ACA594"/>
<path transform="translate(808,366)" d="m0 0 8 1 10 9 5 10-1 4-5 7-8-4-8-5-5-2-5-5 1-8 4-5z" fill="#AEA796"/>
<path transform="translate(631,251)" d="m0 0h19l15 1 15 4 10 5v4l-8 5-25 10h-9l-7-3-13-10-5-4-4-7v-2l4-2zm-3 3-4 1 1 4 14 10 8 7 8-1 30-12-1-2-13-4-15-3z" fill="#AEA796"/>
<path transform="translate(1496,210)" d="m0 0 9 1 9 6 4 6 1 6-4 10-4 1-8-7-9-4-4-4-2-5 1-5 4-4z" fill="#AEA796"/>
<path transform="translate(998,773)" d="m0 0 7 1 8 7 6 10 2 8-1 16-2 11h-4l-2-5-2-15-5-13-8-11v-8z" fill="#AEA796"/>
<path transform="translate(1323,863)" d="m0 0h8l6 4 4 8v8l-4 6-5 4-5-1-6-4-4-5-1-2v-9l4-7z" fill="#AEA796"/>
<path transform="translate(502,934)" d="m0 0h18l14 3 15 5 4 3v5l-3 4h-2v2l-13 8-12 6-3 2h-9l-5-3-8-10-4-6-2-7v-7l7-4zm-2 3-5 5 1 6 7 12 9 10 5-2 22-12 9-7 1-3-15-4-15-5z" fill="#AEA796"/>
<path transform="translate(747,873)" d="m0 0h6l6 4 4 5 1 2v9l-6 8-1 1h-6l-8-5-4-7-1-5 4-8z" fill="#AEA796"/>
<path transform="translate(624,816)" d="m0 0 5 1 8 7 4 7 2 5 1 10v8l-2 6-2 11h-3l-2-9-3-21-4-7-8-9 1-5z" fill="#AEA796"/>
<path transform="translate(1017,899)" d="m0 0 7 1 6 4 5 8-1 6-4 6-5 3-8-1-6-5-3-7 1-7 4-6z" fill="#AEA796"/>
<path transform="translate(546,1017)" d="m0 0h6l6 4 4 6 1 5-3 6-7 6-7-1-5-3-4-6-1-5 3-6z" fill="#AEA796"/>
<path transform="translate(964,313)" d="m0 0h7l5 1 9-1 3 3-10 1-15-2-1 2-2-1v2l-5 3h-3l-1 4h-3l-1 4-3 2-4 4h-2l-1 5h2l1-2 3 1-5 5-4 6-3 3h-2l-2 5-4 2-2 4-4 2v2l-11 7-7 2-8-2v-2l12-4 4-1 1-3 7-6 5-6 5-5 5-6 5-5 7-9 9-9 8-5z" fill="#3A352B"/>
<path transform="translate(1463,334)" d="m0 0 7 1 3 3 3 7 2 4 4 1v2h13l10-5 5-4h5l5 4 5 2 6-1 11-6 5 1 10 6h11v2l-4 2h-8l-6-4-4-3h-6l-8 6-9 1-6-4-2-3-5 1-8 6-3 1h-17l-5-3-6-8-2-6-7 1-29 8-41 10-26 5h-6v-1l21-4 5-2 26-6 22-5 6-2 21-6z" fill="#AEA796"/>
<path transform="translate(610,163)" d="m0 0h7l4 6 4 11 2 23-5 2-1 2-4-8-5-15-7-15v-4z" fill="#AFA897"/>
<path transform="translate(827,882)" d="m0 0h1l1 9v80h1v71l-2 21-1 4-3 1v-11l1-25 1-16v-41l1-21-2-1v-12-4-36l1-4z" fill="#24221B"/>
<path transform="translate(474,348)" d="m0 0 2 1-1 4h-2l-1 3-2 3h-2v2h-2l-2 4-10 8-7 5h-2l-1 2h-3v2l-6 3-5 3-6 2-5 1-2-1v2h-9l-2-1v-3l-5-1 1-3 3-1 7 1 12-2 8-3 4-2h3l1-2 5-4h2v-2h3l2-4 8-4 11-12z" fill="#3C372D"/>
<path transform="translate(1392,338)" d="m0 0m-7 1h7v2l-12 3-20 2-14 3-20 1-10 2-38 3h-15l-19-1v-1l33-2 49-5 40-6z" fill="#625F53"/>
<path transform="translate(1112,879)" d="m0 0 8 1 5 4h5l3-4 7-1 7 3 5 6 1 2v8l-4 6-5 4-6-2-6-5-5 1-8 6-6-2-5-5-4-11 4-8zm27 4-6 4-1 3-7-2-5-4h-8l-3 4v7l2 5 3 3 7-1 5-4 2-2 4-1 6 6 6 1 6-4 1-2v-6l-5-6z" fill="#AEA796"/>
<path transform="translate(356,291)" d="m0 0h5l3 3 3 15 4 5 2 5-1 5-5 3h-6l-4-8v-7l-7-11-1-6 2-3z" fill="#454439"/>
<path transform="translate(574,279)" d="m0 0h6l8 5 2 3v8l-4 6-4 2h-6l-8-5-3-3v-7l4-6z" fill="#AEA796"/>
<path transform="translate(1549,359)" d="m0 0 8 1 8 7 2 5-1 6-4 4-3 1h-8l-6-4-2-3v-8z" fill="#AFA897"/>
<path transform="translate(521,329)" d="m0 0h2l3 15 5 8-1 5-6 5-6 1-5-3-3-6v-9l6-10 3-4h2z" fill="#AEA796"/>
<path transform="translate(1120,807)" d="m0 0h23l5 2 1 8-4 6-5 1-6-5-22-2-1-5 5-4z" fill="#47463B"/>
<path transform="translate(705,354)" d="m0 0h2l1 4h-2l-2 5-8 7h-2v2l-14 10-13 6-12 4-11-1v-2l-4-2 2-2 22-2 16-8 12-9 5-5z" fill="#24221B"/>
<path transform="translate(596,367)" d="m0 0 3 2v14l4 4 5 3-1 4-4 5-2 1h-7l-7-4-1-2v-8l3-7 2-7z" fill="#AEA796"/>
<path transform="translate(1208,696)" d="m0 0h4l2 8 4 2 9 1 1 2-5 2-8 6-3 6 1 10-2 3-1-4-3 1-3-3-4-5h-4l2-5h3v-2l3-3 2-5 1-13z" fill="#24221B"/>
<path transform="translate(681,240)" d="m0 0 13 1 6 2 16 3 7 4 1 8-6 8-8 5-15 6-16 6-4 2-3-1 1-2 10-5h3v-2l5-1 14-6h3v-2l7-4h2l2-7-4-4-20-5-9-2-11-1-3-2z" fill="#444238"/>
<path transform="translate(495,161)" d="m0 0 5 1 1 4h2l3 8v7l-1 3v20l-5-1-4-10-4-21v-9z" fill="#46453A"/>
<path transform="translate(1207,762)" d="m0 0 2 4v45 4 20l1 4-1 2 1 15-1 92h-1l-1-6v-62l-1-33v-69z" fill="#3C372D"/>
<path transform="translate(954,235)" d="m0 0 9 2 6 6v5l-9 8-11 4-4-1 2-11 4-12z" fill="#454439"/>
<path transform="translate(894,952)" d="m0 0h19l3 7-1 6-3 3-5 1-3-3-13-3-7-1-1-1v-6l4-2z" fill="#47463B"/>
<path transform="translate(856,190)" d="m0 0 4 2 6 8 4 16-1 5-3 5-2 8h-2l-3-19-8-16 1-6 1-2z" fill="#AEA796"/>
<path transform="translate(828,783)" d="m0 0h1l1 105-2 2-2 11-2-2v-58l1-12 1-1v-12l1-12z" fill="#373329"/>
<path transform="translate(356,353)" d="m0 0 7 2 2 2 1 7-3 5-9 5-11 1v-11h2l1-6 5-4z" fill="#46453A"/>
<path transform="translate(1472,318)" d="m0 0h6l5 12 7 6 7-1 4-1-1 3-2 1h-11l-3-1-6-9-3-4h-12l-32 7-2 1-13 2-20 4-11 2h-12v-1l51-10 44-10z" fill="#AEA796"/>
<path transform="translate(1350,1029)" d="m0 0h10l14 5 11 7 7 6 2 4v5l-4 4-4 1h-9l-9-3-8-4-7-6-4-7-2-1-1-5zm2 2-2 2 1 7 9 10 16 8h11l5-3-2-5-8-7-14-8-12-4z" fill="#AEA796"/>
<path transform="translate(1208,626)" d="m0 0 5 1 2 9v4l4 2-1 7-4 5-3 16h-2l-2-5-3-33 3-5z" fill="#24221B"/>
<path transform="translate(1433,362)" d="m0 0 5 2 4 2h8l4-3h6l3 2v5l-9 2h-5l-7 2-17-1h-5l-1-4 4-4z" fill="#47463B"/>
<path transform="translate(835,353)" d="m0 0 6 1 4 4v8l-4 6-4 4h-7l-4-4-1-4 4-10z" fill="#AEA796"/>
<path transform="translate(747,790)" d="m0 0h11l10 2 4 3-1 6-5 5-5-1-1-4-5-1-17-1-1-4 4-3z" fill="#47463B"/>
<path transform="translate(764,158)" d="m0 0 4 4 5 11 1 8-3 10-1 8h-2l-2-4-4-16-3-11 1-7z" fill="#47463B"/>
<path transform="translate(957,797)" d="m0 0h2l2 10v12l-4 9-4 4-6 2h-12l-5-3 1-7 4-1 7 4h8l4-9 1-17zm-24 29 2 4 2 2-1-4-1-2z" fill="#B5AF9F"/>
<path transform="translate(1390,619)" d="m0 0h6l6 5 2 4v7l-4 2-6-1-8-1-5 6h-1l1-10 3-7z" fill="#AEA796"/>
<path transform="translate(1393,728)" d="m0 0 10 1 3 3v8l-8 13-8 7-9 1-5-4-2-3v-3l4 2 1 1h10l6-4 4-5 1-2-4-2-4-6v-6z" fill="#AFA898"/>
<path transform="translate(527,162)" d="m0 0 5 2 4 10 1 8-3 5-2 10-3-1-3-6-3-15v-10z" fill="#47463B"/>
<path transform="translate(653,681)" d="m0 0h6l4 4 2 9-1 5-16-1-7 6 4-16 4-5z" fill="#AFA897"/>
<path transform="translate(1522,195)" d="m0 0 6 2 4 5 1 7-5 6-9 3-4-2-1-2v-8l5-8z" fill="#AEA796"/>
<path transform="translate(872,267)" d="m0 0 5 1 3 2 2 15 1 9 2 4v7l-2 1v-2l-3-1-5-10-6-20 2-5z" fill="#47463B"/>
<path transform="translate(576,232)" d="m0 0h10l2 4v6l-5 7-9 1-4-2-2-3-1-6 7-6z" fill="#434237"/>
<path transform="translate(298,354)" d="m0 0 1 3h2l9 20 4 11-1 4-5-1-4-8-2-3v-3l-3 1-1-9-3-2-1-11z" fill="#47463B"/>
<path transform="translate(303,241)" d="m0 0h7l1 1v10l-7 6h-9l-5-5 1-6 6-5z" fill="#454339"/>
<path transform="translate(894,160)" d="m0 0 4 1 3 3 4 8 1 8-2 4-4 4-4-2-4-9-1-5v-10h3z" fill="#47463B"/>
<path transform="translate(707,300)" d="m0 0 5 2 9 7 3 2 13 2-1 4-7 2-7 3-3 1-5-5-5-8-2-4z" fill="#24221B"/>
<path transform="translate(1132,934)" d="m0 0 6 2v2l3 1 6 10 1 1v7l-2 5-3-3-2-7-4-5-2-1v-2l-11 1-3-1-1-3 4-4z" fill="#24221B"/>
<path transform="translate(1111,347)" d="m0 0 16 1 19 2 16 2 48 1 27 1v1h-77l-14-1-3-1-25-2-7-2z" fill="#4E4C41"/>
<path transform="translate(1124,949)" d="m0 0h9l4 3 4 11v7l-3 7-8 3-10-2-5-5-1-2v-11l6-8zm2 2-8 7-2 4v6l4 6 5 3 6-1 6-5v-8l-3-9-3-3z" fill="#AEA796"/>
<path transform="translate(746,879)" d="m0 0h9l5 5v9l-5 4h-6l-4-5-2-3v-6z" fill="#464439"/>
<path transform="translate(470,187)" d="m0 0 4 1 1 2v6l-5 5-12 1-5-2-1-7 7-3z" fill="#47463B"/>
<path transform="translate(1145,993)" d="m0 0 11 3 9 2 9 1v-2h2v2l3 1-3 3-11 4h-11l-16-4-8-3h-10l-7 3h-3l1-2 7-4 9-1 15 5 12 3h8v-2l-15-6z" fill="#3D382E"/>
<path transform="translate(1018,904)" d="m0 0h6l5 5 1 8-4 5h-8l-3-2-2-6v-6l2-3z" fill="#46453A"/>
<path transform="translate(1062,339)" d="m0 0h7l13 3 23 3 6 2v2l12 1 20 2 3 2h-10l-19-2-19-3-27-4-12-3z" fill="#413D33"/>
<path transform="translate(471,300)" d="m0 0 6 3 8 6v2l8 1 3 3v3l-11 3h-5l-5-7-3-7-2-1v-5z" fill="#24221B"/>
<path transform="translate(1325,868)" d="m0 0 7 1 3 2 2 4v6l-4 6h-6l-5-5-2-7 4-6z" fill="#46453A"/>
<path transform="translate(934,644)" d="m0 0 7 1 8 4 4 7-1 5-3 2-4-1-6-3v-2h-2l-4-7z" fill="#47463B"/>
<path transform="translate(430,298)" d="m0 0 9 1 5 3 1 3-2 4-6 3h-8l-5-3-2-5 5-5z" fill="#47463B"/>
<path transform="translate(694,207)" d="m0 0 5 3-1 7-4 3-9 2h-7l-2-2 1-5h2v-2l7-1v-2z" fill="#47463B"/>
<path transform="translate(684,954)" d="m0 0h8l8 5 2 4-1 6-3 3h-7l-9-3-3-4 1-7zm1 3-2 2 1 5 8 4 5-1-1-5-5-4z" fill="#AEA796"/>
<path transform="translate(829,227)" d="m0 0h9l4 4-3 5-2 1-18 1-2-6 4-4z" fill="#47463B"/>
<path transform="translate(1261,781)" d="m0 0h7l6 4v5l-4 4-3 1h-9l-3-3 2-7z" fill="#AFA898"/>
<path transform="translate(754,950)" d="m0 0 2 3 1 3-1 3 3 1 3 7 3 1 6 9 1 3 2 1-1 2h2l2 3-1 5-4-2-4-6-7-8-3-6v-2l-3-1-2-9v-6z" fill="#3C372D"/>
<path transform="translate(935,199)" d="m0 0 7 3 5 4 2 3v3h2l-2 4-2 1-12-4-3-3-1-7z" fill="#47463B"/>
<path transform="translate(785,331)" d="m0 0 5 1 1 2-2 6-5 5-6 1-5-3-1-2v-6l2-2z" fill="#444338"/>
<path transform="translate(1495,215)" d="m0 0h8l6 5 3 4-1 5-5 1-9-4-4-4v-5z" fill="#47463B"/>
<path transform="translate(546,1024)" d="m0 0h8l4 7-2 6-3 3-7-1-3-5-1-4z" fill="#434238"/>
<path transform="translate(1465,1018)" d="m0 0h2l-1 5h-2l-1 3h-2l-2 5h-2l-1 4-6 7h-2v-3l-9 6-3 1-3 3-15 7-6-1v-2l7-1 8-3 11-7 9-6 8-7h2l1-3h2l2-4z" fill="#3D382E"/>
<path transform="translate(1277,972)" d="m0 0 8 2 2 2 10 3 4 1-1 8-5 1-8-2-1-5h-2l-3-6-4-2z" fill="#24221B"/>
<path transform="translate(806,372)" d="m0 0h7l5 3 2 5 3 1-2 4h-9l-7-3-2-6 2-1z" fill="#47463B"/>
<path transform="translate(418,336)" d="m0 0 14 4h8l3 2-5 4-6 2-8-1-5-2v-2h-2l-1-5z" fill="#47463B"/>
<path transform="translate(559,186)" d="m0 0 4 2 5 5v7h-10l-5-4-1-7z" fill="#454439"/>
<path transform="translate(1446,336)" d="m0 0 3 2-1 2-13 3-9 3-26 6-4-1 2-2 14-5 14-2 5-2 8-2z" fill="#434036"/>
<path transform="translate(575,284)" d="m0 0 9 2 1 1v9l-5 3-5-1-4-5 2-7z" fill="#454338"/>
<path transform="translate(1432,707)" d="m0 0 12 3 3 6-5 5-7-1-4-5v-7z" fill="#47463B"/>
<path transform="translate(763,352)" d="m0 0 7 2 3 8-5 6h-6l-3-9z" fill="#47463B"/>
<path transform="translate(1303,743)" d="m0 0 12 2 2 4-1 4-3 2-9-1-4-5 1-4z" fill="#47463B"/>
<path transform="translate(1552,366)" d="m0 0 7 1 2 1v2h2l-1 6-4 3h-5l-5-4 1-8z" fill="#434136"/>
<path transform="translate(809,335)" d="m0 0 5 1 8 2h6l8-2 1 2-4 5-3 1h-12l-8-4z" fill="#24221B"/>
<path transform="translate(770,740)" d="m0 0h13l-2 4-8 6-13 4 1-4 7-7z" fill="#B5AE9F"/>
<path transform="translate(556,864)" d="m0 0h12l2 1-2 6-2 4-3 1-9-3v-7z" fill="#B0A998"/>
<path transform="translate(717,682)" d="m0 0 4 2 1 2 7 1 2 5-3 4h-9l-4-5 1-8z" fill="#47463B"/>
<path transform="translate(1543,332)" d="m0 0h6l4 2 1 2 12 5v3l-9 1-7-4-7-5z" fill="#24221B"/>
<path transform="translate(756,1126)" d="m0 0 5 1h3v2l6 1 1 6-4 3-7-1-5-5z" fill="#47463B"/>
<path transform="translate(1514,332)" d="m0 0 7 1v2l4 2 7 2 1 3-9 3-4-2-1-2-4-2-1-2h-2l1-4z" fill="#24221B"/>
<path transform="translate(964,313)" d="m0 0h7l5 1 9-1 3 3-10 1-15-2-1 2-2-1v2l-5 3h-3l-1 4h-3l-1 4-3 2-4 4-3-1 9-10 9-8z" fill="#3D382E"/>
<path transform="translate(614,688)" d="m0 0 7 1 4 5-2 5-8 2-4-6 1-5z" fill="#47463B"/>
<path transform="translate(804,280)" d="m0 0h5l1 1-1 10-4 6-4-1-2-6z" fill="#47463B"/>
<path transform="translate(686,1211)" d="m0 0 4 2 5 5 10 4h16l8-2 16-8h2v2l-6 3-3 2h-3l-1 2-12 4h-14l-9-2-9-5-4-4z" fill="#3D382E"/>
<path transform="translate(1445,956)" d="m0 0h9l7 5 1 7-4 3h-7l-7-4-2-2-1-5zm3 1-3 3 1 6 6 3h6l1-4-3-5-7-3z" fill="#AEA796"/>
<path transform="translate(1354,626)" d="m0 0 6 1 3 4-1 4-7 3-6-3v-6z" fill="#47463B"/>
<path transform="translate(1314,362)" d="m0 0h9v2l-13 1-16 1-1 1-21 1-17 1v-2l6-1 43-3z" fill="#3D382E"/>
<path transform="translate(1210,729)" d="m0 0 2 4 2 1v13l-2 1v-6h-3l-1 6v9l-2 1-1-11v-15h4z" fill="#3C372D"/>
<path transform="translate(1479,340)" d="m0 0 9 2 3 1 8-1v3l-1 3-7 3-4-1-7-5z" fill="#24221B"/>
<path transform="translate(335,195)" d="m0 0 4 1 1 3 3 1v2h2l-1 5-5 2-7-6-1-6z" fill="#47463B"/>
<path transform="translate(1288,993)" d="m0 0h8l4 5-2 5-2 1h-7l-5-5 1-4zm3 4-2 3 7 1-2-4z" fill="#AEA796"/>
<path transform="translate(912,364)" d="m0 0 3 1-2 4-4 4-8 4-10-2v-2l12-4 4-1 1-2z" fill="#24221B"/>
<path transform="translate(892,1059)" d="m0 0 5 4v2l2 1 2 3-5 2-2 6-11 6h-3l1-2 8-4 2-6 1-4h-2l-1-4z" fill="#3C372D"/>
<path transform="translate(1522,201)" d="m0 0 5 1 2 7-1 3-8 2-3-3 1-7z" fill="#47463B"/>
<path transform="translate(1468,326)" d="m0 0 6 2v2l-11 2-5 3-8 1 3-2h3l-4-1-5-1 3-3 10-2 4 2 1-2z" fill="#3C372D"/>
<path transform="translate(777,1018)" d="m0 0 2 1-2 9-4 4-2-3-4 2-7 6h-4v-2l3-1 1-2h2v-2l5-3 1-2 3-1 3-3z" fill="#3D382E"/>
<path transform="translate(682,1181)" d="m0 0h2l7 14 6 6v2l5 1 7 3h11l5-2 3 1-11 4h-7l-9-3-5-3-7-8-5-8z" fill="#3D382E"/>
<path transform="translate(1107,958)" d="m0 0 2 4 1 1 1 3 1 4 3 8h-2v-2l-4 1 2 6 1 4-4-4-2-6v-6h-2l1-7z" fill="#3C372D"/>
<path transform="translate(959,188)" d="m0 0 7 1 2 5-3 5h-8l-1-4z" fill="#47463B"/>
<path transform="translate(828,783)" d="m0 0h1v50l-1 4h-2l-1-8 1-1v-12l1-12z" fill="#3C372D"/>
<path transform="translate(550,892)" d="m0 0 18 4-2 5-5 2-7-4-4-5z" fill="#B6B0A1"/>
<path transform="translate(511,789)" d="m0 0 10 1 2 6-5 3-5-1-4-5z" fill="#47463B"/>
<path transform="translate(404,383)" d="m0 0 8 1h15l1 2-10 3-2-1v2l-10-1-5-2 1-3z" fill="#24221B"/>
<path transform="translate(1017,908)" d="m0 0 7 1 3 4-1 5-7 2-3-4v-7z" fill="#24221B"/>
<path transform="translate(491,958)" d="m0 0 5 4v2l3 1 7 8 1 2-6-1-1 8h-1l-1-8-3-4v-3h-2l-2-5z" fill="#3C372D"/>
<path transform="translate(1324,873)" d="m0 0h7l2 3v6l-4 2-4-1-2-4v-5z" fill="#24221B"/>
<path transform="translate(871,1094)" d="m0 0 3 1-5 5-11 6-8 5-2-1 5-6 4-3h3v-2l10-4z" fill="#454338"/>
<path transform="translate(855,329)" d="m0 0 5 1 2 1v2h4v2h14l1 4-9 2-3-3-7-3-7-5z" fill="#3A352C"/>
<path transform="translate(1129,933)" d="m0 0h6l1 2-7 1-6 3-2 3v2h3v2h-2v2l-3 1-3-1-1 3v-2h-2l2-5 3-4 5-4 4-2z" fill="#3D382E"/>
<path transform="translate(513,990)" d="m0 0 2 2 2 12v5l-5-5-6-9-1-2 7 1z" fill="#3D382E"/>
<path transform="translate(827,876)" d="m0 0 3 1v11l-2 2-2 11-2-2v-13l1-9z" fill="#3C372D"/>
<path transform="translate(1117 1e3)" d="m0 0 3 1-15 7-9 3h-17l-6-2v-1l21 1 10-3 10-5z" fill="#AEA796"/>
<path transform="translate(1062,339)" d="m0 0h7l15 4-4 2h-9l-12-3z" fill="#434136"/>
<path transform="translate(1057,979)" d="m0 0 2 1-5 5v5l-6 4h-2v2l-2-1 1-2h2l-1-2-7 1 1-2 10-5 4-4z" fill="#38342A"/>
<path transform="translate(956,240)" d="m0 0 7 1 2 2-1 5-3 2-4-1-3-5z" fill="#24221B"/>
<path transform="translate(1102,624)" d="m0 0 2 1-11 7-9 6h-2v2l-10 6-5 4h-2v-2l16-11 15-10z" fill="#3D382E"/>
<path transform="translate(355,357)" d="m0 0h5l1 7-4 4h-4l-2-7z" fill="#3A352B"/>
<path transform="translate(474,348)" d="m0 0 2 1-1 4h-2l-1 3-2 3h-2v2h-2l-2 4-5 4-2-1 5-6 5-4v-1l-3-1 7-7z" fill="#3D382E"/>
<path transform="translate(1281,1129)" d="m0 0 3 1v2l4 2 13 9 9 4 7 3-4 1-8-3-12-7-7-5-5-6z" fill="#3D382E"/>
<path transform="translate(829,971)" d="m0 0h1v28h-3l-1-7 1-17z" fill="#25231C"/>
<path transform="translate(1254,1097)" d="m0 0 5 2 3 5 4 5-1 3-1-3-4-2-3-1-1 4-3-8z" fill="#3D382E"/>
<path transform="translate(1139,888)" d="m0 0 5 1 2 3-1 6h-6l-2-4v-5z" fill="#24221B"/>
<path transform="translate(610,945)" d="m0 0h6l5 5-8 1h-24l1-3h10l14 1v-2z" fill="#3D382E"/>
<path transform="translate(750,883)" d="m0 0 5 2 1 1v6l-5 2-4-4 1-5z" fill="#24221B"/>
<path transform="translate(432,235)" d="m0 0 10 1 6 3 3 5v5h-2l-2 4-9 5-3-1 11-6 2-3h2l-5-8-13-4z" fill="#3D382E"/>
<path transform="translate(1117,888)" d="m0 0 4 2v6l-6 2-2-1-1-8z" fill="#24221B"/>
<path transform="translate(419,718)" d="m0 0h1l1 6v22l-4 8 1 3-3 1-1-5 3-4 2-10z" fill="#3D382E"/>
<path transform="translate(594,388)" d="m0 0 5 1 1 6-3 2h-5l-2-6 1-2z" fill="#47463B"/>
<path transform="translate(710,348)" d="m0 0 4 1-2 7h-2l-1 4-5 5-4 2 6-9h2l-1-4-2-1 3-3h2z" fill="#3C372D"/>
<path transform="translate(582,175)" d="m0 0 5 1 1 5-3 3h-6l-1-3 2-5z" fill="#47463B"/>
<path transform="translate(940,729)" d="m0 0 3 1-10 7-6 5-7 4-9 6 1-3 12-9 5-3 9-7z" fill="#3D382E"/>
<path transform="translate(621,325)" d="m0 0h3l1 7v8l-2 3h-2l-1-16z" fill="#B2AC9C"/>
<path transform="translate(493,312)" d="m0 0h9l2 2-4 6-13 1 3-2 6-1z" fill="#3D382E"/>
<path transform="translate(1480,985)" d="m0 0h2l-1 9-4 9-3 5-3-1v-7l5-1 3-6z" fill="#3C372D"/>
<path transform="translate(1350,356)" d="m0 0h12l-2 2-28 4-5 1-4-2 25-4z" fill="#3D382E"/>
<path transform="translate(1361,1074)" d="m0 0 9 2 10 1 19-3v2l-11 3h-18l-8-3z" fill="#3D382E"/>
<path transform="translate(1408,335)" d="m0 0m-8 1h8l-1 2-8 3-9 2h-7l3-2h6l2-4z" fill="#434036"/>
<path transform="translate(1121,981)" d="m0 0 7 1h6l5-1 2 8 4 2v2l-4-1-4-5-3-2-13-2z" fill="#3D382E"/>
<path transform="translate(421,627)" d="m0 0 4 4v17h-2v-10l-4-1z" fill="#3A352B"/>
<path transform="translate(836,360)" d="m0 0h2v2h2l-1 7-3 1-5-2 2-6z" fill="#47463B"/>
<path transform="translate(702,1014)" d="m0 0 5 2-2 4-4 7h-2v-4l-3-1 2-3h2z" fill="#39352B"/>
<path transform="translate(937,335)" d="m0 0 1 3-1 2h2l1-2 3 1-7 7-6 1 2-6 3-4h2z" fill="#37332A"/>
<path transform="translate(1573,295)" d="m0 0h2l5 11 2 9v6l-2-1-3-13-4-9z" fill="#AEA796"/>
<path transform="translate(1397,1130)" d="m0 0 3 1-1 4h-2l-1 5-3 1 2-6h-2v2l-8 4-2-1 8-6 3-1 2-2z" fill="#3D382E"/>
<path transform="translate(602,1073)" d="m0 0 6 1 10 2 10 1 2 1v2l-13-1-15-4z" fill="#3D382E"/>
<path transform="translate(635,383)" d="m0 0h12l1 2-7 2 3 2v2l-5-1-5-5z" fill="#3D382E"/>
<path transform="translate(1341,1042)" d="m0 0 5 2 10 10v2l-4-1v-2l-4-2v-2l-5-1-2 1-1-6z" fill="#3D382E"/>
<path transform="translate(419,692)" d="m0 0 2 1-1 8-4 8-2 2 3 1 2 5-7-4 1-6 1-2h2v-3h2z" fill="#3D382E"/>
<path transform="translate(360,315)" d="m0 0 6 1 3 2v4l-5 2-2-1-2-4z" fill="#24221B"/>
<path transform="translate(496,169)" d="m0 0 5 1 2 10h-4l-3-5z" fill="#363229"/>
<path transform="translate(1240,367)" d="m0 0h14l-1 2-12 1h-12l-6-1v-1z" fill="#3D382E"/>
<path transform="translate(1563,288)" d="m0 0 2 2 1 2 3 4 3 10h-2l-3-4v-2l-3-3-2-7z" fill="#3D392E"/>
<path transform="translate(880,833)" d="m0 0 5 2 4 5-1 6-1 2h2l2 5-2 1-1-2-3-1 1-13-4-1v-2h-2z" fill="#3D382E"/>
<path transform="translate(825,621)" d="m0 0 4 1 1 5h-2l-2-2-4 4-2 10-2-3 2-9 2-3h2z" fill="#3D382E"/>
<path transform="translate(679,945)" d="m0 0 2 1v4l3 1-8 6h-2l1-6 2-3h2z" fill="#3A352C"/>
<path transform="translate(1468,326)" d="m0 0 6 2v2l-11 2-5 2-1-4 6-2 1 1 1-2z" fill="#24221B"/>
<path transform="translate(426,386)" d="m0 0v3l-7 2-2-1v2h-9l-2-1 1-3 9 2v-2l7-1z" fill="#3D382E"/>
<path transform="translate(467,355)" d="m0 0 2 1-5 6h-2l-2 4-4 3h-2l1-4h2v-2l7-6h3z" fill="#24221B"/>
<path transform="translate(677,382)" d="m0 0 3 1-5 3h-2l-1 2-13 5-3-1 3-2 13-5z" fill="#3D382E"/>
<path transform="translate(936,619)" d="m0 0h7l2 6-10-1-1-2z" fill="#47463B"/>
<path transform="translate(849,316)" d="m0 0h2l4 7v2h2v3l-4 1-4-6z" fill="#2B2820"/>
<path transform="translate(1439,1049)" d="m0 0 1 2h-2l-2 4-7 6h-2v2l-5 5-2 1 1-4 8-8z" fill="#3D382E"/>
<path transform="translate(428,705)" d="m0 0 2 1-1 4v21l-2 2-1-9 1-18z" fill="#3D382E"/>
<path transform="translate(831,629)" d="m0 0 2 1 3 8 1 11-1 3h-2v-8l-3-11-1-2z" fill="#3D382E"/>
<path transform="translate(484,992)" d="m0 0h8l-1 2-11 2h-8l-9-2 4-1h15z" fill="#3D382E"/>
<path transform="translate(1215,636)" d="m0 0 2 1-1 2 4 2v7l-1 3-4 4-1 5-2 2 1-8 5-7v-5l-3-2z" fill="#3D382E"/>
<path transform="translate(356,294)" d="m0 0 4 3-1 5-1 2-5-2-1-4 3-1z" fill="#25231C"/>
<path transform="translate(456,232)" d="m0 0 11 1 7 1 4 2 1 5-1 2-2-1-1-4-9-3-10-2z" fill="#3D382E"/>
<path transform="translate(842,1104)" d="m0 0 2 2-6 5-3 3-10 7-1-2 4-3h2v-2l4-3h2v-2l4-3h2z" fill="#3D382E"/>
<path transform="translate(899,1032)" d="m0 0 3 1 5-1-3 4h-4l-1 3-6 2 2-4z" fill="#37332A"/>
<path transform="translate(870,841)" d="m0 0 5 3 6 7 3 3-1 3-3-2v-2l-3-1-1-3-3-2v-2h-2z" fill="#3D382E"/>
<path transform="translate(644,773)" d="m0 0 3 1-1 2h-4v2l-11 4v-3l2-1 2 1v-2l7-3z" fill="#3D382E"/>
<path transform="translate(1512,267)" d="m0 0 5 2v6l-4 1-3-5z" fill="#47463B"/>
<path transform="translate(694,1023)" d="m0 0 3 1-7 8-7 6-2-1 1-2h2v-2l4-1v-3l3-1 1-3z" fill="#3D382E"/>
<path transform="translate(470,306)" d="m0 0 3 1 6 12 6 2-1 2-5 1-9-17z" fill="#3D382E"/>
<path transform="translate(751,1188)" d="m0 0v3l-17 12-2-1 3-1 1-3 6-2v-2z" fill="#3D382E"/>
<path transform="translate(1335,1022)" d="m0 0h4v2h11l5 1v1l-9 1-4 2-3-3-2-1v-2z" fill="#3D382E"/>
<path transform="translate(897,370)" d="m0 0 3 1-9 2v2l8 1v3h-2v-2l-5 1-5-5 5-2z" fill="#3D382E"/>
<path transform="translate(715,971)" d="m0 0h1v11l-3 10-2-1 3-16z" fill="#3D382E"/>
<path transform="translate(888,769)" d="m0 0 3 1h-2l-2 4-4 4h-2l-2 4-3 2 1-4 5-5z" fill="#3D382E"/>
<path transform="translate(395,380)" d="m0 0 8 1 1 3h-2l-1 3-6-3z" fill="#3A352B"/>
<path transform="translate(855,329)" d="m0 0 5 1 2 1v2h4v2h4l-1 3-7-3-7-5z" fill="#24221B"/>
<path transform="translate(1330,956)" d="m0 0 2 2 3 1-11 5 2-6z" fill="#3D382E"/>
<path transform="translate(435,303)" d="m0 0 6 1-1 3-4 2-5-2 1-3z" fill="#3D382E"/>
<path transform="translate(498,378)" d="m0 0h2v2l6 1v2l-7 1-1-2h-2z" fill="#3D382E"/>
<path transform="translate(738,312)" d="m0 0 3 3-3 3-4 2h-9l4-2 7-2z" fill="#3D382E"/>
<path transform="translate(719,253)" d="m0 0h2l-1 8-5 4-7 3v-2l7-4h2z" fill="#3D382E"/>
<path transform="translate(825,830)" d="m0 0h1v7l3-4v11l-3-1-1-2z" fill="#24221B"/>
<path transform="translate(1209,622)" d="m0 0 3 1v2h2l1 4h-2v-2h-5l-4 6-1-2 1-4z" fill="#3D382E"/>
<path transform="translate(499,384)" d="m0 0 8 6 5 4-2 1-5-2v-2l-4-2-2-2z" fill="#3D382E"/>
<path transform="translate(1503,339)" d="m0 0 3 3-5 5-3 1 1-5-1-2z" fill="#39342B"/>
<path transform="translate(687,254)" d="m0 0 5 1 6 5v4h-2v-3l-3-1v-2l-4-1z" fill="#3D382E"/>
<path transform="translate(819,1124)" d="m0 0 2 1-6 7-4 1-1 3h-2l2-4 6-5z" fill="#3D382E"/>
<path transform="translate(938 1e3)" d="m0 0 2 1-9 7h-3l-2 4-2-2h2l2-4 9-5z" fill="#3D382E"/>
<path transform="translate(1253,811)" d="m0 0 4 1 6 3v3l-7-2z" fill="#B3AC9C"/>
<path transform="translate(874,784)" d="m0 0 2 1-2 4-5 5-3 5h-2l2-5z" fill="#3D382E"/>
<path transform="translate(1529,338)" d="m0 0h5l1 4-5 4h-5l-1-2 8-2z" fill="#3C372D"/>
<path transform="translate(298,247)" d="m0 0h5l1 4-7 2v-5z" fill="#24221B"/>
<path transform="translate(704,947)" d="m0 0 4 5 3 5 1 6-3-3-5-10z" fill="#3C372D"/>
<path transform="translate(949,937)" d="m0 0 5 5 7 8-1 2-7-7-1-4h-2z" fill="#3D382E"/>
<path transform="translate(1115,632)" d="m0 0h6l3 4-9-1-6 3-3-1z" fill="#3D382E"/>
<path transform="translate(622,1117)" d="m0 0 7 2-4 2-7 1 1-4z" fill="#373229"/>
<path transform="translate(1405,1072)" d="m0 0h13l-1 3h-13l-1-2z" fill="#3C372D"/>
<path transform="translate(505,993)" d="m0 0 8 1 1 5-2 2-5-5z" fill="#312D25"/>
<path transform="translate(907,873)" d="m0 0 5 4v2h2v2h2l3 5-5-2-1-4-4-2v-2h-2z" fill="#3D382E"/>
<path transform="translate(571,866)" d="m0 0h3l1 6-5 4z" fill="#B8B2A3"/>
<path transform="translate(930,827)" d="m0 0 5 2 3 5-6-1-2-2z" fill="#CBC6BC"/>
<path transform="translate(951,319)" d="m0 0m-1 1m-1 1m-1 1m-1 1m-1 1m-1 1m-1 1m-1 1m-1 1 2 3-4 4-3-1z" fill="#3C372D"/>
<path transform="translate(1109,954)" d="m0 0 3 1-1 8-3 2v-9z" fill="#413E34"/>
<path transform="translate(919,886)" d="m0 0 5 4 5 7-3 1-2-5h-2l-4-6z" fill="#3C372D"/>
<path transform="translate(796,1146)" d="m0 0 2 1-7 7h-2l-1 3h-2l2-4 3-1 1-3h2v-2z" fill="#3D382E"/>
<path transform="translate(928,898)" d="m0 0 3 1 4 4 2 5-5-3v-2h-2z" fill="#3D382E"/>
<path transform="translate(777,726)" d="m0 0 4 1 5 6-1 4-6-8z" fill="#FEFEFE"/>
<path transform="translate(932,346)" d="m0 0h3l-1 4-3 3h-3l2-6z" fill="#3D382E"/>
<path transform="translate(1563,340)" d="m0 0h6l-1 4-5 3-6-1 4-2h5v-3z" fill="#3D382E"/>
<path transform="translate(840,332)" d="m0 0 2 2-3 5-3 1-1-5z" fill="#3D382E"/>
<path transform="translate(1071 1e3)" d="m0 0 5 1 10 3-1 2h-6v-2l-5-1z" fill="#3D382E"/>
<path transform="translate(967,959)" d="m0 0 4 4 2 6-1 5-2-3-1-7-2-2z" fill="#3D382E"/>
<path transform="translate(891,855)" d="m0 0 4 2 5 7 3 3h-3l-4-5-2-1z" fill="#3D382E"/>
<path transform="translate(659,765)" d="m0 0 3 1-4 3-3-1v3l-3 1-4-2z" fill="#3D382E"/>
<path transform="translate(518,350)" d="m0 0h3l2 3v3h-5l-1-5z" fill="#47463B"/>
<path transform="translate(754,1037)" d="m0 0h2v2l-10 6-2-1 3-1v-2z" fill="#3D382E"/>
<path transform="translate(1250,999)" d="m0 0 11 3-3 2-4-1h-4l-1-2z" fill="#3B362C"/>
<path transform="translate(673,377)" d="m0 0 3 1-7 4-5 2h-5l4-3 9-3z" fill="#3D382E"/>
<path transform="translate(1326,349)" d="m0 0h10v1l-9 2h-11v-1z" fill="#3D382E"/>
<path transform="translate(1086,723)" d="m0 0h2v2l3 1-2 3h-2z" fill="#C8C4B8"/>
<path transform="translate(705,1100)" d="m0 0" fill="#FEFEFE"/>
<path transform="translate(771,286)" d="m0 0" fill="#D6D2CA"/>
<path transform="translate(389,286)" d="m0 0" fill="#AEA796"/>
<path transform="translate(771,282)" d="m0 0" fill="#AEA796"/>
<path transform="translate(561,1146)" d="m0 0" fill="#FEFEFE"/>
<path transform="translate(569,876)" d="m0 0" fill="#FEFEFE"/>
<path transform="translate(1252,804)" d="m0 0" fill="#FEFEFE"/>
<path transform="translate(877,353)" d="m0 0" fill="#FEFEFE"/>
</svg>
